<?xml version="1.0"?>
<svg width="100" height="125" xmlns="http://www.w3.org/2000/svg" xmlns:svg="http://www.w3.org/2000/svg">
 <g class="layer">
  <title>Layer 1</title>
  <path d="m78.56,66.15a0.9,0.9 0 0 0 -0.74,0.44a1.15,1.15 0 0 0 -0.11,0.32l-0.02,0.09c-0.03,0.11 -0.06,0.22 -0.1,0.33l-0.04,0.09l0.04,-0.08c-0.24,0.64 -0.47,1.28 -0.66,1.92c-0.12,0.36 -0.21,0.72 -0.3,1.1c-0.08,0.33 -0.13,0.67 -0.18,0.99l-0.02,0.13a17.08,17.08 0 0 0 -0.14,2l-0.01,0.3c-0.02,0.37 -0.01,0.74 -0.01,1.12c0,0.37 0,0.75 -0.01,1.12a8.09,8.09 0 0 1 -0.38,2.01a5.5,5.5 0 0 1 -0.59,1.1c-0.23,0.31 -0.46,0.61 -0.7,0.92c-0.21,0.27 -0.41,0.54 -0.61,0.82a6.57,6.57 0 0 0 -0.79,1.63a4.24,4.24 0 0 0 -0.15,1.79a6.75,6.75 0 0 0 0.15,0.87l0.04,0.15c0.07,0.31 0.16,0.62 0.25,0.92l0.08,0.28a7.73,7.73 0 0 1 0.27,1.91a7.91,7.91 0 0 1 -0.39,1.77a6.02,6.02 0 0 1 -0.61,1.14a5.3,5.3 0 0 1 -0.71,0.78a12.92,12.92 0 0 1 -1.73,1.07l-0.26,0.15c-0.21,0.11 -0.41,0.23 -0.61,0.34a6.16,6.16 0 0 0 -1.14,0.85a3.23,3.23 0 0 0 -1.01,2.54a4.7,4.7 0 0 0 0.42,1.55l0.16,0.38l0.19,0.47a16.31,16.31 0 0 1 0.55,1.58a5.15,5.15 0 0 1 0.12,0.95a5.43,5.43 0 0 1 -0.28,1.06a6.32,6.32 0 0 1 -0.57,1.19a9.84,9.84 0 0 1 -1.23,1.2c-0.29,0.23 -0.59,0.46 -0.88,0.69c-0.16,0.13 -0.32,0.27 -0.47,0.4l-0.17,0.14a5.91,5.91 0 0 0 -1.07,1.23a6.04,6.04 0 0 0 -0.77,2c-0.08,0.34 -0.18,0.7 -0.32,1.14c-0.12,0.33 -0.24,0.66 -0.36,0.99l-0.05,0.14c-0.1,0.28 -0.21,0.57 -0.34,0.85c-0.31,0.66 -0.66,1.34 -1.04,2.02q-0.23,0.41 -0.46,0.81c-0.39,0.67 -0.78,1.36 -1.13,2.06q0.49,-0.64 0.99,-1.27c0.69,-0.87 1.42,-1.72 2.04,-2.65a10.12,10.12 0 0 0 1.24,-2.82a12.74,12.74 0 0 1 0.59,-1.64a0.37,0.37 0 0 1 0.02,-0.09c0.05,-0.09 0.1,-0.18 0.16,-0.27a5.08,5.08 0 0 1 0.46,-0.73a0.37,0.37 0 0 1 0.1,-0.09a0.35,0.35 0 0 1 0.06,-0.13c0.97,-1.38 2.34,-2.43 3.42,-3.74a5.85,5.85 0 0 0 1.19,-2.23a12.78,12.78 0 0 0 0.19,-3.01a8.84,8.84 0 0 1 0.26,-2.11c0,-0.01 0,-0.02 0,-0.04c0.02,-0.07 0.04,-0.14 0.06,-0.21c0.02,-0.07 0.05,-0.14 0.07,-0.21a0.95,0.95 0 0 1 0.04,-0.09l0.04,-0.11a2.54,2.54 0 0 1 0.17,-0.32a3.34,3.34 0 0 1 0.78,-1.01a9.42,9.42 0 0 1 2.17,-1.14a4.74,4.74 0 0 0 1.76,-1.41a5.42,5.42 0 0 0 0.96,-2.16q0.03,-0.21 0.06,-0.41c0.01,-0.08 0.01,-0.17 0.02,-0.25c0.01,-0.09 0.02,-0.18 0.03,-0.28c0.01,-0.15 0.01,-0.3 0.02,-0.46c0,-0.11 -0.01,-0.23 -0.01,-0.34l0,-0.03a7.13,7.13 0 0 0 -0.09,-0.79a15.34,15.34 0 0 0 -0.8,-2.56a4.72,4.72 0 0 1 -0.38,-2.51c0.29,-1.53 1.68,-2.51 2.37,-3.86a6.12,6.12 0 0 0 0.29,-0.7c0.01,-0.03 0.02,-0.06 0.02,-0.09c0.02,-0.08 0.04,-0.16 0.06,-0.24c0.01,-0.08 0.03,-0.17 0.05,-0.26q0.07,-0.43 0.12,-0.86c0.04,-0.29 0.08,-0.59 0.11,-0.88c0.01,-0.12 0.02,-0.24 0.03,-0.36c0,-0.04 0.01,-0.08 0.01,-0.12c0.01,-0.16 0.02,-0.32 0.03,-0.48l0,-0.03l0,0.01c0.01,-0.17 0.01,-0.33 0.02,-0.5c0,-0.15 0,-0.3 0,-0.45c0,-0.09 -0.01,-0.19 -0.01,-0.28c-0.15,-2.51 -0.6,-5.15 0.17,-7.55z" id="svg_1"/>
  <path d="m82.83,77.06c-0.05,-0.22 -0.12,-0.44 -0.19,-0.66a4.69,4.69 0 0 0 -0.2,-0.57a23.81,23.81 0 0 0 -1.15,-2.2c-0.19,-0.33 -0.37,-0.67 -0.54,-1a10.66,10.66 0 0 1 -0.47,-0.98c-0.12,-0.3 -0.23,-0.59 -0.33,-0.9c-0.08,-0.24 -0.15,-0.48 -0.22,-0.73a10.82,10.82 0 0 1 -0.23,-1.57c-0.02,-0.26 -0.02,-0.52 -0.03,-0.78l0,-0.09c0,-0.08 0,-0.17 0,-0.25l0,-0.12l0.01,-0.1a0.89,0.89 0 0 0 -0.07,-0.46a0.81,0.81 0 0 0 -0.25,-0.32c-0.02,-0.02 -0.04,-0.02 -0.07,-0.04a11.96,11.96 0 0 0 -0.33,4c0.09,1.82 0.41,3.64 0.34,5.47a7.85,7.85 0 0 1 -1.43,4.48a15.04,15.04 0 0 0 -1.37,1.87a3.01,3.01 0 0 0 -0.1,2.42c0.27,0.86 0.66,1.67 0.88,2.55a8.05,8.05 0 0 1 0.24,2.64a6.08,6.08 0 0 1 -1.93,4.06a7.18,7.18 0 0 1 -2.02,1.16a3.63,3.63 0 0 0 -1.8,1.34c-0.87,1.41 -0.61,3.15 -0.68,4.71a6.45,6.45 0 0 1 -0.57,2.47a7.84,7.84 0 0 1 -1.25,1.82c-1,1.13 -2.2,2.09 -3.09,3.31l0,0c-0.28,0.39 -0.54,0.78 -0.78,1.19a17.68,17.68 0 0 0 -0.59,1.8a10.11,10.11 0 0 1 -1.27,2.84c-0.64,0.94 -1.39,1.81 -2.09,2.7q-0.58,0.74 -1.15,1.47a14.3,14.3 0 0 1 -0.95,1.17c-0.02,0.12 -0.03,0.24 -0.05,0.36c-0.09,0.71 -0.14,1.42 -0.17,2.13c-0.02,0.38 -0.02,0.76 -0.01,1.14c0.01,0.26 0.04,0.52 0.06,0.78c0.38,0.01 0.75,0.02 1.12,0.03c0.04,-0.36 0.09,-0.71 0.15,-1.06a17.78,17.78 0 0 1 0.72,-3.02a7.33,7.33 0 0 1 1.72,-2.4c0.16,-0.18 0.34,-0.35 0.51,-0.52c0.09,-0.09 0.18,-0.17 0.27,-0.25l0.02,-0.02a0.54,0.54 0 0 1 0.12,-0.09c0.06,-0.05 0.13,-0.1 0.19,-0.15l0.08,-0.09l0.22,-0.23c0.21,-0.22 0.44,-0.43 0.67,-0.63l0.11,-0.1c0.32,-0.29 0.6,-0.55 0.84,-0.81l0.01,-0.01a7.72,7.72 0 0 0 0.56,-1.14c0.08,-0.25 0.15,-0.51 0.21,-0.77a4.99,4.99 0 0 0 0.14,-0.8c0.02,-0.3 0.05,-0.59 0.09,-0.87a4.49,4.49 0 0 1 0.18,-0.8a4.78,4.78 0 0 1 0.33,-0.78a2.62,2.62 0 0 1 0.46,-0.62a7.53,7.53 0 0 1 1.33,-0.95c0.22,-0.13 0.44,-0.25 0.66,-0.38c0.2,-0.11 0.4,-0.23 0.6,-0.34a6.32,6.32 0 0 0 0.55,-0.33c0.18,-0.12 0.35,-0.26 0.52,-0.4c0.04,-0.03 0.07,-0.05 0.1,-0.08l0,0l0,0l0,0l0,0c0.02,-0.01 0.03,-0.03 0.05,-0.04l-0.03,0.02a7.76,7.76 0 0 0 0.81,-0.78c0.12,-0.14 0.26,-0.28 0.38,-0.42c0.09,-0.1 0.17,-0.2 0.24,-0.31a5.84,5.84 0 0 0 0.51,-0.83c0.15,-0.31 0.28,-0.63 0.4,-0.95c0.03,-0.09 0.06,-0.17 0.09,-0.26l0,0a28.05,28.05 0 0 0 0.69,-2.85c0.04,-0.16 0.08,-0.32 0.12,-0.47a7.54,7.54 0 0 1 0.32,-1.66a2.78,2.78 0 0 1 0.17,-0.38a2.45,2.45 0 0 1 0.23,-0.21c0.28,-0.22 0.59,-0.41 0.88,-0.61l0.08,-0.04c0.3,-0.2 0.63,-0.4 0.99,-0.58l0.17,-0.09c0.3,-0.16 0.61,-0.32 0.9,-0.51c0.31,-0.2 0.63,-0.43 1.01,-0.72c0.18,-0.15 0.36,-0.3 0.53,-0.46a4.29,4.29 0 0 0 0.66,-0.81l0.08,-0.12a5.1,5.1 0 0 0 0.58,-1.12a3.68,3.68 0 0 0 0.21,-0.78a4.66,4.66 0 0 0 0.03,-0.48l0,-0.17a9.46,9.46 0 0 0 -0.03,-1.18a10.3,10.3 0 0 0 -0.18,-1.11a16.71,16.71 0 0 0 -0.54,-1.93l-0.14,-0.4c-0.17,-0.5 -0.35,-1.02 -0.49,-1.53a4.95,4.95 0 0 1 -0.15,-1.16a3.86,3.86 0 0 1 0.14,-0.69a3.65,3.65 0 0 1 0.35,-0.67a9.64,9.64 0 0 1 1.02,-1.07l0.12,-0.11c0.19,-0.17 0.39,-0.37 0.58,-0.58a3.39,3.39 0 0 0 0.42,-0.61a2.16,2.16 0 0 0 0.22,-0.77c0.03,-0.21 0.04,-0.41 0.06,-0.62c0.01,-0.18 0.02,-0.35 0.02,-0.53a3.58,3.58 0 0 0 -0.13,-0.91z" id="svg_2"/>
  <path d="m76.44,46.83c0.09,-0.01 0.19,-0.03 0.29,-0.05a6.74,6.74 0 0 0 1.23,-0.39a6.25,6.25 0 0 0 1.03,-0.68c0.29,-0.23 0.6,-0.45 0.89,-0.67q-0.07,-0.14 -0.16,-0.27c-0.22,-0.36 -0.45,-0.71 -0.68,-1.06c-0.24,-0.36 -0.45,-0.68 -0.66,-1.02l-0.13,-0.23l-0.04,-0.08a1.79,1.79 0 0 0 -0.19,-0.29a0.91,0.91 0 0 0 -1.18,-0.21a0.75,0.75 0 0 0 -0.21,0.18a0.8,0.8 0 0 0 -0.09,0.79a1.08,1.08 0 0 0 0.09,0.2a7.84,7.84 0 0 1 0.09,1.25c-0.04,0.71 -0.08,1.27 -0.17,1.84c-0.04,0.22 -0.07,0.46 -0.11,0.69z" id="svg_3"/>
  <path d="m54.72,97.13c0.23,-0.53 0.46,-1.06 0.67,-1.6c1.05,-2.63 1.87,-5.56 1.14,-8.37a7.04,7.04 0 0 0 -0.78,-1.87c-0.34,-0.55 -0.71,-1.08 -1.02,-1.64c-0.01,-0.02 -0.02,-0.04 -0.03,-0.07c-0.12,-0.14 -0.24,-0.28 -0.34,-0.43c-0.05,-0.07 -0.09,-0.13 -0.13,-0.2a1.32,1.32 0 0 1 -0.14,-0.28c-0.02,-0.06 -0.04,-0.12 -0.06,-0.18c-0.02,-0.06 -0.03,-0.12 -0.05,-0.18a1.13,1.13 0 0 1 -0.02,-0.15l0,-0.06a1.14,1.14 0 0 1 0.01,-0.15c0,-0.03 0,-0.05 0.01,-0.08c0.01,-0.06 0.02,-0.13 0.03,-0.19c0.01,-0.06 0.03,-0.13 0.04,-0.19c0.02,-0.05 0.03,-0.1 0.04,-0.14a5.79,5.79 0 0 1 0.3,-1.43a5.85,5.85 0 0 0 0.24,-4.02c-0.37,-0.99 -1.2,-1.72 -1.57,-2.69c-0.01,-0.02 -0.02,-0.03 -0.03,-0.05a1.32,1.32 0 0 1 -0.1,-0.15a0.79,0.79 0 0 1 -0.05,-0.09c-0.02,-0.06 -0.04,-0.11 -0.05,-0.17c-0.01,-0.03 -0.02,-0.06 -0.03,-0.09c0,-0.06 -0.01,-0.12 -0.01,-0.18c-0.01,-0.08 -0.01,-0.15 -0.01,-0.23a0.89,0.89 0 0 1 0.03,-0.23c0.02,-0.1 0.05,-0.2 0.08,-0.3c0.03,-0.09 0.06,-0.17 0.09,-0.26c0.03,-0.08 0.06,-0.16 0.09,-0.23a1.68,1.68 0 0 1 0.17,-0.35c0.02,-0.02 0.03,-0.04 0.05,-0.07a7.24,7.24 0 0 1 1.14,-1.52c0.77,-0.82 1.69,-1.49 2.52,-2.25a6.07,6.07 0 0 0 1.88,-2.84c0.32,-1.14 0.38,-2.33 0.61,-3.48c0.03,-0.18 0.07,-0.36 0.12,-0.54l0,0c0.03,-0.14 0.06,-0.29 0.11,-0.43c0.02,-0.07 0.04,-0.14 0.07,-0.22c0.01,-0.06 0.04,-0.11 0.06,-0.17a5.66,5.66 0 0 1 0.38,-0.88c0.05,-0.09 0.1,-0.18 0.16,-0.27c0.06,-0.09 0.11,-0.17 0.17,-0.26c0.05,-0.06 0.09,-0.11 0.14,-0.17c0.06,-0.08 0.12,-0.15 0.19,-0.23a2.02,2.02 0 0 1 0.22,-0.21c0.03,-0.02 0.06,-0.04 0.08,-0.06c0.06,-0.04 0.12,-0.09 0.18,-0.13c0.11,-0.08 0.23,-0.15 0.34,-0.22c0.06,-0.05 0.13,-0.09 0.2,-0.13c0.04,-0.03 0.09,-0.06 0.13,-0.08c0.03,-0.02 0.05,-0.03 0.08,-0.05c0.07,-0.04 0.15,-0.08 0.22,-0.12c0.06,-0.04 0.13,-0.07 0.19,-0.09c0.04,-0.02 0.08,-0.04 0.12,-0.06l0.09,-0.04c0.1,-0.04 0.19,-0.08 0.29,-0.11c0.07,-0.03 0.13,-0.05 0.2,-0.06l0.1,-0.03c0.05,-0.01 0.1,-0.02 0.16,-0.02c0.07,-0.01 0.15,-0.03 0.22,-0.03c0.09,-0.01 0.18,-0.02 0.27,-0.03c2,-0.52 4.21,-0.58 5.97,-1.72a11.82,11.82 0 0 0 2.33,-2.45c0.13,-0.16 0.27,-0.31 0.42,-0.46l0.04,-0.05c0.05,-0.06 0.11,-0.13 0.16,-0.2c0.04,-0.04 0.08,-0.09 0.12,-0.14a1.83,1.83 0 0 1 0.18,-0.17a1.12,1.12 0 0 1 0.19,-0.15c0.04,-0.02 0.08,-0.04 0.11,-0.06c0.06,-0.03 0.12,-0.06 0.18,-0.09c0.07,-0.03 0.13,-0.06 0.2,-0.08c0.03,-0.02 0.07,-0.03 0.1,-0.04a4.59,4.59 0 0 1 1.23,-0.46a30.71,30.71 0 0 0 4.1,-0.73a8.08,8.08 0 0 0 3.28,-2.23a31.4,31.4 0 0 1 2.6,-3.06a4.45,4.45 0 0 1 3.3,-1.2a0.7,0.7 0 0 0 -0.04,-0.17a0.89,0.89 0 0 0 -0.27,-0.34a1.28,1.28 0 0 0 -0.53,-0.21a1.65,1.65 0 0 0 -0.22,-0.02l-0.12,0q-0.22,-0.01 -0.45,-0.02c-0.07,0 -0.14,0 -0.22,0c-0.13,0 -0.27,0 -0.4,0.02a10.33,10.33 0 0 0 -1.37,0.24c-0.18,0.04 -0.35,0.09 -0.51,0.15a4.31,4.31 0 0 0 -0.42,0.28c-0.3,0.25 -0.58,0.52 -0.87,0.78c-0.31,0.29 -0.6,0.61 -0.9,0.9a19.99,19.99 0 0 1 -1.99,1.71c-0.21,0.16 -0.41,0.31 -0.62,0.47c-0.17,0.13 -0.34,0.26 -0.52,0.38a5.16,5.16 0 0 1 -0.82,0.41a5.09,5.09 0 0 1 -0.78,0.25c-0.28,0.07 -0.57,0.13 -0.86,0.17c-0.25,0.04 -0.5,0.05 -0.76,0.07a14.41,14.41 0 0 0 -1.51,0.17l0.01,0c-0.17,0.03 -0.34,0.06 -0.5,0.1c-0.21,0.04 -0.41,0.09 -0.61,0.13q-0.13,0.04 -0.26,0.09a8.65,8.65 0 0 0 -1.88,0.95a13.78,13.78 0 0 0 -1.52,1.16c-0.4,0.34 -0.79,0.68 -1.19,1.03l-0.29,0.25a1.08,1.08 0 0 0 -0.17,0.14l-0.03,0.04a0.94,0.94 0 0 0 -0.12,0.09a5.32,5.32 0 0 1 -0.9,0.58a5.73,5.73 0 0 1 -0.97,0.31c-0.48,0.09 -0.98,0.15 -1.46,0.21c-0.52,0.06 -1,0.12 -1.47,0.18a12.77,12.77 0 0 0 -1.36,0.26a9.58,9.58 0 0 0 -1.88,0.71a9.35,9.35 0 0 0 -2.81,2.08a6.63,6.63 0 0 0 -0.95,1.33a5.3,5.3 0 0 0 -0.31,0.77a4.15,4.15 0 0 0 -0.2,0.91a8.89,8.89 0 0 0 0.12,2.26c0.02,0.13 0.04,0.26 0.06,0.4c0.04,0.2 0.07,0.41 0.1,0.62l0.06,0.63c0.02,0.15 0.02,0.3 0.02,0.46c0,0.08 0,0.16 0.01,0.23c0,0.11 0,0.21 -0.01,0.32a5.68,5.68 0 0 1 -0.22,1.27a3.52,3.52 0 0 1 -0.33,0.63a3.31,3.31 0 0 1 -0.37,0.41c-0.37,0.29 -0.76,0.56 -1.14,0.83l-0.06,0.04c-0.16,0.11 -0.32,0.23 -0.48,0.34a21.88,21.88 0 0 0 -1.96,1.54a7.67,7.67 0 0 0 -1.85,2.37a3.44,3.44 0 0 0 -0.05,2.95a5.99,5.99 0 0 0 1.78,1.97c0.12,0.09 0.24,0.18 0.36,0.28l0.07,0.05c0.25,0.19 0.51,0.38 0.74,0.6a3.71,3.71 0 0 1 0.41,0.51a2.44,2.44 0 0 1 0.14,0.33a2.39,2.39 0 0 1 0.03,0.38a4.02,4.02 0 0 1 -0.19,0.86q-0.11,0.27 -0.22,0.55a6.25,6.25 0 0 0 -0.62,3.92a2.16,2.16 0 0 0 0.3,0.65a2.84,2.84 0 0 0 0.43,0.46l0.04,0.04c0.16,0.15 0.32,0.3 0.49,0.45c0.05,0.05 0.11,0.09 0.17,0.13l0.07,0.06c0.1,0.07 0.16,0.12 0.23,0.17l0.1,0.07a7.22,7.22 0 0 1 0.74,0.53a1.34,1.34 0 0 1 0.11,0.15a3.54,3.54 0 0 1 0.13,0.34a2.01,2.01 0 0 1 0.04,0.3a6.26,6.26 0 0 1 -0.19,0.85l-0.02,0.11c-0.08,0.3 -0.16,0.59 -0.25,0.89c-0.08,0.27 -0.15,0.54 -0.23,0.82c-0.06,0.22 -0.11,0.45 -0.16,0.67l-0.04,0.16c-0.04,0.21 -0.08,0.42 -0.11,0.62l-0.04,0.23a8.16,8.16 0 0 0 -0.12,2.12a5.06,5.06 0 0 0 0.61,1.94l0.07,0.14c0.07,0.12 0.13,0.23 0.19,0.35a4.61,4.61 0 0 1 0.28,0.69c0.03,0.03 0.06,0.06 0.09,0.09z" id="svg_4"/>
  <path d="m86.7,43.84a8.47,8.47 0 0 0 -2.83,2.76a9.76,9.76 0 0 1 -2.84,2.66a9.35,9.35 0 0 1 -3.72,1.22c-1.32,0.16 -2.66,0.2 -3.7,1.1a32.19,32.19 0 0 0 -2.21,2.49a6.56,6.56 0 0 1 -2.72,1.69c-2.01,0.68 -4.29,0.65 -6.18,1.64a4.12,4.12 0 0 0 -2.02,2.37a21.72,21.72 0 0 0 -0.65,3.45a7.07,7.07 0 0 1 -1.14,3.04a1.97,1.97 0 0 1 -0.3,0.43a2.04,2.04 0 0 1 -0.2,0.17a21.47,21.47 0 0 1 -2.02,1.85a8.54,8.54 0 0 0 -2.17,2.47a2.13,2.13 0 0 0 -0.19,1.89a8.44,8.44 0 0 0 1.03,1.59a4.67,4.67 0 0 1 0.6,1.22c0.03,0.05 0.06,0.09 0.08,0.14a2.46,2.46 0 0 1 0.37,1.25c0,0.07 0,0.14 0,0.21c-0.01,0.12 -0.01,0.25 -0.02,0.37c-0.01,0.07 -0.02,0.14 -0.03,0.21q-0.03,0.1 -0.05,0.19c-0.01,0.04 -0.03,0.07 -0.04,0.1c-0.01,0.03 -0.02,0.06 -0.03,0.08c-0.03,0.07 -0.06,0.13 -0.09,0.19c-0.04,0.08 -0.08,0.16 -0.12,0.24c-0.29,1.14 -0.88,2.26 -0.52,3.44c0.36,1.21 1.27,2.16 1.79,3.3a8.48,8.48 0 0 1 0.58,1.79c0.02,0.04 0.03,0.08 0.04,0.12c0.01,0.04 0.02,0.08 0.03,0.11c0.01,0.07 0.02,0.14 0.03,0.21a2.94,2.94 0 0 1 0.04,0.38l0,0.05a10.2,10.2 0 0 1 0.08,1.28c-0.04,2.88 -1.16,5.56 -2.27,8.18l0.02,0.03c0.01,0.01 0.02,0.02 0.03,0.03l-0.01,-0.01a14.98,14.98 0 0 1 2.44,2.97c-0.01,-0.02 -0.02,-0.03 -0.03,-0.05c0.02,0.03 0.04,0.07 0.06,0.1l0,0.01l0,0c0.13,0.22 0.24,0.45 0.37,0.67c0.13,0.22 0.23,0.44 0.36,0.66a3.23,3.23 0 0 1 0.22,0.48c0.05,-0.22 0.1,-0.43 0.15,-0.64a11.88,11.88 0 0 1 0.49,-1.32c0.08,-0.18 0.18,-0.37 0.26,-0.55c0.06,-0.16 0.13,-0.31 0.18,-0.47c0.06,-0.17 0.12,-0.35 0.18,-0.52a0.32,0.32 0 0 1 0.01,-0.03c0.1,-0.28 0.19,-0.56 0.26,-0.84c0.08,-0.3 0.15,-0.6 0.23,-0.9c0.14,-0.46 0.27,-0.91 0.36,-1.37c0.1,-0.49 0.19,-0.98 0.28,-1.47c0.08,-0.48 0.14,-0.97 0.21,-1.46c0.03,-0.24 0.07,-0.49 0.11,-0.73c0.02,-0.24 0.04,-0.48 0.05,-0.72c0.01,-0.09 0.01,-0.17 0.02,-0.26c-0.01,0.02 -0.01,0.03 -0.01,0.05a9.56,9.56 0 0 0 -0.22,-2.53l-0.05,-0.16l-0.06,0.06a8.97,8.97 0 0 0 -0.42,-1.13a11.7,11.7 0 0 0 -0.6,-1.19l0.02,0.04l-0.02,-0.05l-0.03,-0.05l-0.04,-0.03l-0.01,-0.04l-0.06,-0.11l-0.06,-0.1l0.01,0a5.98,5.98 0 0 0 -0.41,-0.63c-0.17,-0.22 -0.35,-0.44 -0.55,-0.66c-0.17,-0.2 -0.35,-0.39 -0.54,-0.58l-0.18,-0.18a5.03,5.03 0 0 1 -0.51,-0.57c-0.02,-0.05 -0.04,-0.1 -0.06,-0.15a2.1,2.1 0 0 1 -0.04,-0.28a4.39,4.39 0 0 1 0.32,-0.55l0.06,-0.09l0.08,-0.12c0.13,-0.21 0.26,-0.42 0.38,-0.62a6.88,6.88 0 0 0 0.36,-0.66a2.76,2.76 0 0 0 0.2,-0.76a9.79,9.79 0 0 0 0.07,-0.98a4.89,4.89 0 0 0 -0.06,-0.81c-0.04,-0.29 -0.09,-0.58 -0.18,-0.93c-0.09,-0.4 -0.2,-0.8 -0.31,-1.19l-0.01,-0.05l-0.12,-0.4a1.64,1.64 0 0 1 -0.03,-0.26a1.19,1.19 0 0 1 0.03,-0.15a2.08,2.08 0 0 1 0.11,-0.21a2.14,2.14 0 0 1 0.15,-0.15c0.27,-0.2 0.57,-0.38 0.83,-0.54c0.27,-0.17 0.54,-0.33 0.8,-0.51a4.75,4.75 0 0 0 1.63,-2.04a6.07,6.07 0 0 0 0.41,-1.9a11.04,11.04 0 0 0 0,-1.96c-0.02,-0.18 -0.04,-0.36 -0.06,-0.54a12.33,12.33 0 0 1 -0.12,-1.7a3.82,3.82 0 0 1 0.15,-0.81a3.75,3.75 0 0 1 0.34,-0.66a5.69,5.69 0 0 1 0.78,-0.8a8.1,8.1 0 0 1 1.3,-0.81a15.45,15.45 0 0 1 1.54,-0.57c0.08,-0.03 0.16,-0.05 0.25,-0.07l0.08,-0.03c0.11,-0.03 0.21,-0.07 0.32,-0.1c0.26,-0.08 0.52,-0.17 0.78,-0.27c0.06,-0.06 0.13,-0.12 0.19,-0.17c0.11,-0.1 0.24,-0.2 0.34,-0.3a4.69,4.69 0 0 0 0.47,-0.56c0.2,-0.28 0.39,-0.58 0.57,-0.88c0.18,-0.3 0.32,-0.62 0.52,-0.92a7.17,7.17 0 0 1 1.4,-1.52c0.2,-0.16 0.41,-0.32 0.62,-0.48a3.36,3.36 0 0 1 0.57,-0.34c0.22,-0.11 0.44,-0.2 0.68,-0.29c0.21,-0.08 0.41,-0.16 0.63,-0.23c0.11,-0.03 0.22,-0.06 0.33,-0.09c0.11,-0.04 0.22,-0.08 0.33,-0.12q0.38,-0.15 0.76,-0.28a12.22,12.22 0 0 1 1.52,-0.39l0.01,-0.01l0,0c0.02,0 0.03,0 0.05,-0.01a0.1,0.1 0 0 1 0.03,0l0.01,0l0.01,-0.01l-0.01,0.01l-0.01,0l0.02,-0.01l0,0l0,0c0.14,-0.03 0.28,-0.06 0.43,-0.09c0.16,-0.05 0.32,-0.11 0.48,-0.16c0.45,-0.16 0.9,-0.32 1.33,-0.52c0.07,-0.04 0.15,-0.07 0.23,-0.11l0,0l0.04,-0.02l0.04,-0.03c0.28,-0.18 0.54,-0.4 0.78,-0.59l0.18,-0.14c0.38,-0.31 0.73,-0.64 1.03,-0.92a8.72,8.72 0 0 0 1.41,-1.7c0.25,-0.4 0.46,-0.83 0.67,-1.24c0.1,-0.2 0.19,-0.38 0.28,-0.56l0.27,-0.51l0.06,-0.12c0.2,-0.38 0.4,-0.77 0.59,-1.15l0.11,-0.22l0.04,-0.07c0.1,-0.2 0.2,-0.41 0.31,-0.6l0.09,-0.16l0.19,-0.34c0.06,-0.1 0.13,-0.21 0.21,-0.31l0.05,-0.09c0.16,-0.2 0.31,-0.39 0.48,-0.58a5.87,5.87 0 0 1 0.46,-0.46a10.48,10.48 0 0 1 0.9,-0.61c0.06,-0.04 0.13,-0.08 0.2,-0.12a4.19,4.19 0 0 0 0.37,-0.22c0.02,-0.01 0.04,-0.03 0.06,-0.05a3.18,3.18 0 0 0 -1.43,0.33z" id="svg_5"/>
  <path d="m45.08,87.1c0.08,0.03 0.16,0.07 0.25,0.1c0.04,0.02 0.09,0.04 0.13,0.06c0.06,0.03 0.11,0.06 0.17,0.08c0.1,0.05 0.19,0.11 0.29,0.16c0.09,0.05 0.18,0.11 0.26,0.16c0.08,0.05 0.16,0.1 0.24,0.16c0.08,0.05 0.15,0.11 0.23,0.16c0.16,0.12 0.31,0.23 0.46,0.36c0.04,0.03 0.07,0.06 0.1,0.09c0.03,0.03 0.06,0.05 0.09,0.08c0.04,0.04 0.07,0.08 0.1,0.11c0.03,0.03 0.06,0.07 0.09,0.1a2.69,2.69 0 0 1 0.2,0.26c0.03,0.04 0.07,0.09 0.1,0.14c0.02,0.04 0.05,0.09 0.08,0.14c0.04,0.06 0.08,0.14 0.12,0.21c0.02,0.04 0.04,0.07 0.05,0.11a1.19,1.19 0 0 1 0.08,0.18c0.01,0.04 0.01,0.07 0.02,0.11c0.77,2 -0.3,4.56 0.62,6.61a13.7,13.7 0 0 0 2.38,3.19c0.11,0.12 0.21,0.24 0.32,0.36c0.06,0.07 0.13,0.14 0.19,0.21c0.07,0.09 0.14,0.17 0.22,0.26c0.11,0.13 0.22,0.26 0.33,0.4c0.05,0.07 0.11,0.14 0.16,0.21c0.05,0.06 0.1,0.11 0.14,0.17c0.1,0.14 0.2,0.28 0.3,0.42a3.5,3.5 0 0 1 0.25,0.39a2.49,2.49 0 0 1 0.14,0.3c0.03,0.07 0.06,0.15 0.08,0.22c0.06,0.17 0.11,0.34 0.15,0.51c0.05,0.17 0.09,0.33 0.12,0.5c0.03,0.14 0.05,0.29 0.06,0.43c0.02,0.15 0.03,0.29 0.04,0.44c0,0.08 0.01,0.16 0.01,0.24c0,0.08 0,0.16 -0.01,0.24c0,0.04 0,0.08 0,0.12a19.08,19.08 0 0 1 -0.16,3.82c-0.22,1.85 -0.43,3.7 -0.55,5.56a70.67,70.67 0 0 0 0.05,9.57c0.14,0 0.28,0 0.42,0c-0.02,-0.9 -0.04,-1.81 -0.04,-2.71c-0.01,-1.06 0.04,-2.11 0.11,-3.16c0.04,-0.51 0.08,-1 0.14,-1.5c0.03,-0.25 0.07,-0.49 0.11,-0.73c0.04,-0.25 0.08,-0.49 0.14,-0.73a4.78,4.78 0 0 1 0.59,-1.39c0.24,-0.39 0.5,-0.77 0.77,-1.15c0.12,-0.18 0.24,-0.35 0.34,-0.54c0.12,-0.2 0.23,-0.39 0.34,-0.59c0.25,-0.4 0.51,-0.79 0.74,-1.2c0.22,-0.41 0.43,-0.83 0.62,-1.26c0.18,-0.42 0.34,-0.85 0.49,-1.28l0,0.02c0.16,-0.51 0.31,-1.01 0.43,-1.52c0.1,-0.39 0.17,-0.79 0.24,-1.18a1.06,1.06 0 0 1 -0.03,-0.11c-0.02,-0.09 -0.04,-0.17 -0.06,-0.25c-0.09,-0.33 -0.2,-0.65 -0.28,-0.98c-0.07,-0.25 -0.16,-0.5 -0.25,-0.74a3.7,3.7 0 0 0 -0.29,-0.61c-0.11,-0.2 -0.2,-0.4 -0.31,-0.6c-0.13,-0.2 -0.23,-0.42 -0.35,-0.62a0.19,0.19 0 0 0 -0.02,-0.03a14.48,14.48 0 0 0 -2.14,-2.64l0.02,0.02c-0.07,-0.07 -0.13,-0.13 -0.19,-0.19l0,0c-0.18,-0.18 -0.35,-0.36 -0.53,-0.54a3.42,3.42 0 0 0 -0.37,-0.31c-0.16,-0.12 -0.32,-0.24 -0.48,-0.36a8.26,8.26 0 0 1 -0.64,-0.54a9.47,9.47 0 0 1 -1.1,-0.85c-0.04,-0.05 -0.07,-0.09 -0.11,-0.14c-0.01,-0.03 -0.02,-0.06 -0.04,-0.09l-0.01,-0.01a0.46,0.46 0 0 1 -0.14,-0.59a4.35,4.35 0 0 1 -0.01,-0.5a19.51,19.51 0 0 1 0.33,-2.3l0.04,-0.22l0.07,-0.34c0.05,-0.23 0.09,-0.47 0.13,-0.71l0.09,-0.66c0.02,-0.13 0.03,-0.26 0.03,-0.39l0.01,-0.1l0.01,-0.1c0.01,-0.16 0.01,-0.33 0.02,-0.49l0,-0.17c0,-0.16 0,-0.31 -0.01,-0.46a2.42,2.42 0 0 0 -0.19,-0.76a3.72,3.72 0 0 0 -0.41,-0.69a2.8,2.8 0 0 0 -0.56,-0.57a4.43,4.43 0 0 0 -0.76,-0.44a3.68,3.68 0 0 0 -0.49,-0.21c-0.73,-0.26 -1.49,-0.47 -2.23,-0.67l-0.11,-0.02a3.98,3.98 0 0 1 -0.57,-0.23a4.65,4.65 0 0 1 -0.41,-0.32a1.6,1.6 0 0 1 -0.12,-0.15a3.23,3.23 0 0 1 -0.18,-0.47a7.66,7.66 0 0 1 -0.14,-1.05l-0.01,-0.12l-0.04,-0.49l-0.02,-0.23c-0.06,-0.57 -0.12,-1.07 -0.21,-1.54a7.38,7.38 0 0 0 -0.2,-0.8l-0.01,-0.05a4.77,4.77 0 0 0 -0.36,-0.89c-0.06,-0.12 -0.13,-0.23 -0.21,-0.34a1.82,1.82 0 0 0 -0.34,-0.36a3.94,3.94 0 0 0 -0.98,-0.59a7.73,7.73 0 0 0 -1.25,-0.4l-0.17,-0.05a8.64,8.64 0 0 1 -1.69,-0.65a6.78,6.78 0 0 1 -1.04,-0.77a4.27,4.27 0 0 1 -0.39,-0.47a4.34,4.34 0 0 1 -0.33,-0.82a8.53,8.53 0 0 1 -0.13,-1.64l0,-0.16l-0.01,-0.15l0,-0.14c0,-0.24 -0.01,-0.49 -0.02,-0.73a2.75,2.75 0 0 0 -0.29,-1.18a3.66,3.66 0 0 0 -0.48,-0.7a6.73,6.73 0 0 0 -0.58,-0.56c-0.16,-0.14 -0.32,-0.28 -0.48,-0.41c-0.19,-0.16 -0.37,-0.31 -0.55,-0.47a4.28,4.28 0 0 1 -0.48,-0.62a5.13,5.13 0 0 1 -0.4,-1.02c-0.1,-0.45 -0.19,-0.93 -0.26,-1.42l-0.03,-0.2a8.62,8.62 0 0 0 -0.65,-2.61a7.57,7.57 0 0 0 -2.21,-2.53l-0.32,-0.25c-0.29,-0.23 -0.7,-0.55 -1.05,-0.88a7.82,7.82 0 0 1 -1.06,-1.35a7.64,7.64 0 0 1 -0.64,-1.51l-0.08,-0.27l-0.04,-0.13l-0.02,-0.04c-0.03,-0.12 -0.07,-0.24 -0.1,-0.36l-0.03,-0.09c-0.1,-0.37 -0.2,-0.7 -0.31,-1.03a7.55,7.55 0 0 0 -1.09,-2.1a8.08,8.08 0 0 0 -2.28,-1.99c-0.28,-0.17 -0.55,-0.32 -0.8,-0.45l-0.14,-0.06a4.1,4.1 0 0 0 -0.41,-0.19a0.3,0.3 0 0 0 -0.04,-0.02a0.89,0.89 0 0 0 -0.36,-0.08c-0.03,0 -0.06,0 -0.08,0.01a0.93,0.93 0 0 0 -0.56,0.26l-0.03,0.03q0.12,0.04 0.24,0.08c0.08,0.02 0.16,0.05 0.24,0.08c0.12,0.05 0.25,0.09 0.37,0.15a3.36,3.36 0 0 1 0.98,0.44c2.64,1.76 2.28,5.12 2.97,7.76a5.19,5.19 0 0 0 0.99,2.08a6.43,6.43 0 0 0 0.63,0.64l0.14,0.08c0.07,0.05 0.14,0.09 0.21,0.13c0.07,0.04 0.14,0.08 0.2,0.12c0.03,0.02 0.07,0.04 0.1,0.06c0.1,0.06 0.2,0.12 0.3,0.19c0.05,0.04 0.11,0.07 0.17,0.11c0.17,0.12 0.35,0.24 0.52,0.37c0.11,0.07 0.21,0.15 0.32,0.23c0.05,0.04 0.1,0.08 0.15,0.12c0.05,0.05 0.11,0.09 0.17,0.14c0.03,0.02 0.06,0.04 0.09,0.07c0.08,0.08 0.17,0.16 0.26,0.23c0.14,0.13 0.27,0.26 0.41,0.39c0.05,0.05 0.11,0.11 0.16,0.16c0.06,0.07 0.13,0.13 0.19,0.2c0.07,0.07 0.14,0.15 0.21,0.22a3.49,3.49 0 0 1 0.32,0.37a2.21,2.21 0 0 1 0.26,0.47a3.31,3.31 0 0 1 0.4,1.01a17.86,17.86 0 0 1 0.11,2.27a2.35,2.35 0 0 0 1.05,1.87a6.14,6.14 0 0 1 1.58,1.34c0.92,1.36 -0.16,3.01 0.28,4.46a4.51,4.51 0 0 0 1.98,2.22c1.49,1 3.39,1.85 4.27,3.42c0.02,0.03 0.04,0.06 0.06,0.09q0.07,0.14 0.15,0.27a1.5,1.5 0 0 1 0.16,0.47c0,0.04 0.01,0.09 0.01,0.13c0.01,0.03 0.02,0.06 0.03,0.09a11.69,11.69 0 0 1 0.13,2.3a3.18,3.18 0 0 0 0.55,2.05a3.69,3.69 0 0 0 0.78,0.7c0.19,0.07 0.37,0.14 0.56,0.21z" id="svg_6"/>
  <path d="m45.37,96.92c0.17,0.19 0.34,0.38 0.5,0.58a4.78,4.78 0 0 1 0.42,0.65a2.96,2.96 0 0 1 0.3,0.77a2.53,2.53 0 0 1 0.06,0.69c-0.01,0.28 -0.01,0.55 -0.04,0.83c-0.02,0.25 -0.05,0.5 -0.08,0.75c-0.04,0.41 -0.08,0.81 -0.11,1.22c0.14,0.14 0.28,0.26 0.43,0.39c0.15,0.14 0.3,0.27 0.45,0.41c0.18,0.18 0.36,0.36 0.52,0.55a3.79,3.79 0 0 1 0.43,0.59a5.05,5.05 0 0 1 0.38,0.92c0.02,0.09 0.03,0.18 0.05,0.27l0.02,0.07c0.03,0.16 0.05,0.31 0.09,0.47a2.84,2.84 0 0 0 0.18,0.56a3.22,3.22 0 0 0 0.32,0.53c0.15,0.2 0.32,0.4 0.49,0.6l0.05,0.06l0.11,0.13a7.9,7.9 0 0 1 0.59,0.79a4.91,4.91 0 0 1 0.46,1.06c0.09,0.36 0.14,0.73 0.2,1.13l0.03,0.19c0.07,0.46 0.13,0.99 0.19,1.61c0.05,0.54 0.08,1.1 0.1,1.75c0.02,0.55 0.02,0.98 0.01,1.4q-0.04,0.55 -0.1,1.1l-0.03,0.31l-0.01,0.07l0,0.07c-0.03,0.23 -0.05,0.46 -0.06,0.7c-0.02,0.39 -0.05,0.84 -0.03,1.28c0.01,0.36 0.02,0.72 0.04,1.08c0.02,0.26 0.03,0.53 0.04,0.79c0.01,0.38 0.03,0.77 0.05,1.15l0.01,0.14l0,0.04l0.01,0.04a5.53,5.53 0 0 0 0.09,0.78a4.02,4.02 0 0 0 0.18,0.61c0.16,-0.01 0.32,-0.01 0.48,-0.01c-0.02,-0.29 -0.05,-0.58 -0.07,-0.86c-0.12,-2.15 -0.14,-4.31 -0.07,-6.46c0.02,-0.65 0.02,-1.29 0.06,-1.93l-0.01,0c0.01,-0.14 0.02,-0.28 0.02,-0.43l0,-0.02l0.01,0l0,0l0,-0.11c0.02,-0.37 0.05,-0.73 0.08,-1.1c0.03,-0.39 0.08,-0.77 0.13,-1.16c0.02,-0.19 0.04,-0.38 0.06,-0.57c0.01,-0.1 0.03,-0.2 0.04,-0.29c0.01,-0.08 0.02,-0.16 0.03,-0.24l0.01,-0.03c0.16,-1.36 0.36,-2.72 0.41,-4.09a8.56,8.56 0 0 0 -0.95,-4.77a32.88,32.88 0 0 0 -2.74,-3.41a8.82,8.82 0 0 1 -0.95,-1.44c-0.05,-0.07 -0.1,-0.14 -0.14,-0.21a1.91,1.91 0 0 1 -0.1,-0.17a2.55,2.55 0 0 1 -0.12,-0.25a2.3,2.3 0 0 1 -0.15,-0.57c-0.01,-0.07 -0.02,-0.15 -0.03,-0.22l0,-0.07a5.26,5.26 0 0 1 -0.11,-0.81c-0.08,-1.45 0.34,-2.98 -0.06,-4.41c-0.38,-1.37 -1.67,-1.91 -2.84,-2.56a5.41,5.41 0 0 1 -1.51,-1.14c-0.06,-0.06 -0.1,-0.14 -0.15,-0.2c-0.01,-0.01 -0.03,-0.02 -0.04,-0.03a0.62,0.62 0 0 1 -0.12,-0.1l-0.01,-0.02c-0.02,-0.02 -0.04,-0.03 -0.05,-0.05a0.74,0.74 0 0 1 -0.08,-0.11c-0.02,-0.02 -0.03,-0.04 -0.04,-0.06a1.11,1.11 0 0 1 -0.12,-0.29c-0.02,-0.06 -0.04,-0.13 -0.05,-0.19a1.75,1.75 0 0 1 -0.03,-0.21c0,-0.07 0,-0.14 0,-0.21l0,-0.03c-0.02,-0.12 -0.04,-0.24 -0.05,-0.37c-0.15,-1.36 0.18,-2.81 -0.66,-4.01a7.76,7.76 0 0 0 -2.42,-1.95a14.33,14.33 0 0 1 -2.65,-1.86a3.74,3.74 0 0 1 -1.19,-3.05a8.47,8.47 0 0 0 0.14,-2.36c-0.15,-0.75 -0.84,-1.13 -1.43,-1.55a3.33,3.33 0 0 1 -1.35,-1.58a7,7 0 0 1 -0.2,-2.23a3.36,3.36 0 0 0 -0.48,-1.86a5.56,5.56 0 0 0 -1.25,-1.3a37.7,37.7 0 0 1 -3.01,-2.31a6.92,6.92 0 0 1 -1.77,-4a15.31,15.31 0 0 0 -0.92,-4.29a3.53,3.53 0 0 0 -2.83,-2.26a0.39,0.39 0 0 1 -0.04,-0.02a1.06,1.06 0 0 0 0.2,0.21c0.03,0.02 0.06,0.04 0.09,0.06c0.02,0.03 0.04,0.05 0.06,0.08a12.14,12.14 0 0 1 0.56,1.3l0.11,0.26c0.21,0.53 0.39,1.08 0.56,1.66a7.04,7.04 0 0 1 0.15,1.21c0.01,0.17 0,0.34 0,0.51l0,0.07c-0.02,0.24 -0.04,0.47 -0.07,0.71c-0.03,0.24 -0.08,0.48 -0.14,0.76l-0.02,0.13l-0.17,0.74a5.53,5.53 0 0 0 -0.13,0.85c-0.02,0.18 -0.02,0.36 -0.03,0.54a1.79,1.79 0 0 0 0.23,0.88a5.66,5.66 0 0 0 1.42,1.73c0.27,0.22 0.54,0.44 0.81,0.65l0.17,0.14c0.27,0.21 0.51,0.4 0.74,0.61a5.53,5.53 0 0 1 0.72,0.86a3.92,3.92 0 0 1 0.26,0.66a5.11,5.11 0 0 1 0.11,1.01c-0.03,0.46 -0.09,0.93 -0.16,1.4l-0.03,0.21a3.98,3.98 0 0 0 -0.04,1.1a3.11,3.11 0 0 0 0.48,1.33a4.86,4.86 0 0 0 0.84,0.89c0.19,0.16 0.4,0.32 0.61,0.47l0.14,0.11a15.31,15.31 0 0 1 1.41,1.12a4.42,4.42 0 0 1 0.44,0.56a2.9,2.9 0 0 1 0.2,0.44a4.42,4.42 0 0 1 0.06,0.83c-0.04,0.43 -0.1,0.85 -0.18,1.35a6.23,6.23 0 0 0 -0.09,0.84a2.19,2.19 0 0 0 0.02,0.32a1.94,1.94 0 0 0 0.37,0.87a4.68,4.68 0 0 0 1.16,1.08c0.21,0.15 0.44,0.29 0.65,0.42c0.27,0.16 0.54,0.31 0.81,0.47l0.19,0.1l0.17,0.1l0.43,0.25c0.3,0.19 0.61,0.39 0.91,0.59l0.09,0.06a8.3,8.3 0 0 1 1.02,0.75a4.14,4.14 0 0 1 0.47,0.62a2.91,2.91 0 0 1 0.19,0.41a4.2,4.2 0 0 1 0.05,0.78c-0.01,0.22 -0.03,0.45 -0.06,0.67c-0.03,0.21 -0.07,0.41 -0.12,0.61l-0.03,0.15l-0.05,0.24l-0.03,0.1c-0.02,0.11 -0.04,0.21 -0.06,0.31c-0.02,0.11 -0.04,0.23 -0.06,0.34a1.73,1.73 0 0 0 0,0.51a1.87,1.87 0 0 0 0.08,0.36l0.04,0.14a1.4,1.4 0 0 0 0.29,0.47a1.59,1.59 0 0 0 0.37,0.32a5.46,5.46 0 0 0 0.65,0.34l0.07,0.03c0.11,0.05 0.22,0.1 0.32,0.15l0.14,0.06l0.22,0.1c0.44,0.21 0.94,0.45 1.43,0.71c0.3,0.19 0.59,0.38 0.88,0.58c0.14,0.09 0.27,0.19 0.4,0.29a3.12,3.12 0 0 1 0.29,0.26a5,5 0 0 1 0.55,0.64a3.12,3.12 0 0 1 0.21,0.45a3.55,3.55 0 0 1 0.08,0.7a4.06,4.06 0 0 1 -0.14,0.78a4.47,4.47 0 0 1 -0.32,0.59l-0.1,0.19l-0.03,0.04c-0.07,0.12 -0.14,0.25 -0.21,0.38c-0.07,0.14 -0.13,0.29 -0.18,0.44l-0.04,0.1a5.4,5.4 0 0 0 -0.29,0.92c0.14,0.03 0.28,0.05 0.42,0.08a0.62,0.62 0 0 1 0.29,0.14c0.03,0.01 0.06,0.01 0.08,0.02a3.79,3.79 0 0 1 0.65,0.23a3.26,3.26 0 0 1 0.53,0.31a6.07,6.07 0 0 1 0.87,0.85z" id="svg_7"/>
  <path d="m48.06,112.9c0.37,1.4 0.65,2.83 0.91,4.25c0.42,2.29 0.74,4.61 1,6.93c0.44,-0.02 0.89,-0.02 1.33,-0.03c0,-0.03 0,-0.07 0,-0.11a8.73,8.73 0 0 0 -0.15,-0.9l-0.04,-0.21l-0.09,-0.45c-0.09,-0.46 -0.19,-0.95 -0.25,-1.41l-0.05,-0.36l-0.01,-0.04l-0.01,-0.09c-0.07,-0.46 -0.14,-0.97 -0.17,-1.46a16.69,16.69 0 0 1 -0.01,-1.97l0.01,-0.09l0,-0.09l0,-0.07l0.01,-0.1l0,-0.1l-0.03,0.07l0.04,-0.2c0.01,-0.26 0.03,-0.52 0.05,-0.78l0.03,-0.42c0.02,-0.27 0.05,-0.54 0.06,-0.81l0.01,-0.09a7.77,7.77 0 0 0 -0.09,-1.68a4.27,4.27 0 0 0 -0.54,-1.45c-0.05,-0.08 -0.1,-0.15 -0.15,-0.23l-0.04,-0.06l-0.05,-0.08l-0.02,-0.03l-0.03,-0.04a4.37,4.37 0 0 0 -0.61,-0.68c-0.36,-0.34 -0.73,-0.68 -1.12,-1l-0.05,-0.05l-0.08,-0.06l-0.08,-0.07c-0.32,-0.26 -0.64,-0.54 -0.95,-0.82a4.9,4.9 0 0 1 -0.57,-0.68a2.85,2.85 0 0 1 -0.21,-0.53a7.32,7.32 0 0 1 -0.14,-0.9c-0.03,-0.08 -0.06,-0.16 -0.09,-0.25a13.33,13.33 0 0 1 -0.4,-1.41c-0.04,-0.19 -0.08,-0.39 -0.11,-0.58a5.37,5.37 0 0 1 -0.04,-0.64a14.97,14.97 0 0 1 0.08,-1.56c0.04,-0.48 0.12,-0.96 0.15,-1.44l0,-0.01c0.01,-0.19 0.01,-0.38 0.02,-0.57a2.29,2.29 0 0 0 -0.06,-0.52a2.98,2.98 0 0 0 -0.25,-0.56a8.36,8.36 0 0 0 -1.06,-1.3a4.06,4.06 0 0 0 -0.6,-0.49a3.75,3.75 0 0 0 -0.55,-0.22c-0.37,-0.1 -0.75,-0.15 -1.12,-0.23c-0.21,-0.04 -0.42,-0.09 -0.62,-0.13l-0.01,-0.01c-0.02,0 -0.04,0 -0.06,0c-0.03,-0.01 -0.06,-0.01 -0.08,-0.02c-0.16,0.01 -0.32,0.01 -0.48,0.01q-0.05,-0.05 -0.09,-0.11a0.51,0.51 0 0 1 -0.33,-0.37a1.09,1.09 0 0 1 -0.13,-0.22a2.08,2.08 0 0 1 -0.09,-0.22a2.44,2.44 0 0 1 -0.14,-0.7c-0.01,-0.2 -0.02,-0.4 -0.01,-0.6c0,-0.22 -0.01,-0.44 -0.01,-0.66c0,-0.25 0.01,-0.5 0.02,-0.75c0.01,-0.33 0.02,-0.66 0.04,-0.99a8.06,8.06 0 0 0 -0.02,-1.15c-0.04,-0.09 -0.08,-0.19 -0.12,-0.27l-0.05,-0.1a3.47,3.47 0 0 0 -0.26,-0.47l-0.04,-0.08a1.59,1.59 0 0 0 -0.23,-0.3a2.8,2.8 0 0 0 -0.26,-0.24a2.14,2.14 0 0 0 -0.4,-0.24a4.33,4.33 0 0 0 -0.87,-0.3l-0.18,-0.04c-0.16,-0.04 -0.32,-0.08 -0.49,-0.11c-0.27,-0.06 -0.54,-0.09 -0.81,-0.13l-0.08,-0.01l-0.22,-0.03c-0.33,-0.05 -0.67,-0.11 -1.02,-0.18a2.68,2.68 0 0 1 -0.3,-0.13c-0.07,-0.05 -0.14,-0.11 -0.21,-0.16a2.57,2.57 0 0 1 -0.25,-0.34a4.56,4.56 0 0 1 -0.33,-0.9c-0.13,-0.55 -0.2,-1.12 -0.27,-1.63l-0.01,-0.11a7.05,7.05 0 0 0 -1.2,-3.41a5.6,5.6 0 0 0 -0.86,-0.9a6.63,6.63 0 0 0 -1.05,-0.7a6.99,6.99 0 0 0 -1.71,-0.61l-0.1,-0.02a7.92,7.92 0 0 0 -0.92,-0.18l-0.14,-0.02l-0.13,-0.02c-0.18,-0.02 -0.36,-0.04 -0.54,-0.07c-0.03,-0.09 -0.06,-0.17 -0.08,-0.26a4.34,4.34 0 0 1 -0.08,-1.05c0,-0.15 0,-0.29 0.01,-0.43l0.01,-0.25l0,-0.05a10.49,10.49 0 0 0 0,-1.58a3.33,3.33 0 0 0 -0.87,-2a3.8,3.8 0 0 0 -0.45,-0.39a4.4,4.4 0 0 0 -0.57,-0.34a4.99,4.99 0 0 0 -1.1,-0.4c-0.58,-0.15 -1.19,-0.25 -1.74,-0.34l-0.23,-0.04l-0.43,-0.07l-0.5,-0.08c-0.21,-0.03 -0.41,-0.07 -0.61,-0.11l-0.36,-0.07c-0.6,-0.12 -1.23,-0.23 -1.82,-0.32l-0.13,-0.02c-0.29,-0.05 -0.58,-0.08 -0.87,-0.11l-0.05,0l-0.04,-0.01l-0.05,0c-0.27,-0.03 -0.56,-0.06 -0.84,-0.12c-0.17,-0.03 -0.33,-0.06 -0.5,-0.09c-0.13,-0.03 -0.26,-0.06 -0.39,-0.09c-0.23,-0.04 -0.46,-0.08 -0.68,-0.12a1.08,1.08 0 0 0 -0.22,-0.02a0.91,0.91 0 0 0 -0.66,0.28a0.43,0.43 0 0 1 0.14,-0.01c0.71,0.1 1.42,0.19 2.12,0.31c2.47,0.43 5.02,1.38 6.39,3.53a4.58,4.58 0 0 1 0.64,1.57a15.83,15.83 0 0 1 0.13,1.85a1.67,1.67 0 0 0 1.06,1.45a21.73,21.73 0 0 0 2.12,0.83a20.64,20.64 0 0 1 3.75,1.55a3.97,3.97 0 0 1 1.87,2.59a23.78,23.78 0 0 1 0.17,3.15a2.7,2.7 0 0 0 1.33,2.42c1.65,0.87 4.19,0.8 4.46,3.07c0.14,1.18 -0.52,2.34 -0.26,3.51c0.26,1.18 1.54,1.31 2.48,1.8a3.23,3.23 0 0 1 1.58,1.88l0.02,0.04a1.57,1.57 0 0 1 0.07,0.21l0.01,0.03c0,0.02 0.01,0.05 0.02,0.08c0.01,0.01 0.01,0.02 0.01,0.04c0.3,1.1 0.33,2.34 0.64,3.4c0.64,2.24 2.77,3.72 4.1,5.57a10.49,10.49 0 0 1 1.58,3.5z" id="svg_8"/>
  <path d="m44.91,111.9l0.14,0.14a15.41,15.41 0 0 1 2.16,2.55a6.96,6.96 0 0 1 0.59,1.47l0.04,0.18l0.01,0.05c0.05,0.19 0.1,0.39 0.13,0.59l0.02,0.16l0.02,0.17c0.03,0.2 0.06,0.39 0.08,0.59c0.1,0.83 0.16,1.46 0.21,2c0.04,0.53 0.11,1.07 0.17,1.55l0,0.05c0.09,0.65 0.18,1.4 0.21,2.12l0,0.14c0.01,0.17 0.02,0.33 0.04,0.49c0.16,-0.01 0.32,-0.02 0.48,-0.03c-0.01,-0.12 -0.02,-0.24 -0.04,-0.36c-0.33,-2.9 -0.78,-5.8 -1.4,-8.66a18.23,18.23 0 0 0 -1.11,-3.9a11.63,11.63 0 0 0 -2.08,-2.89a19.94,19.94 0 0 1 -2.19,-2.62c-0.06,-0.1 -0.12,-0.2 -0.17,-0.3c-0.02,-0.02 -0.03,-0.04 -0.05,-0.05a2.21,2.21 0 0 1 -0.2,-0.29a2.7,2.7 0 0 1 -0.16,-0.33c-0.03,-0.08 -0.05,-0.16 -0.08,-0.23c-0.01,-0.06 -0.02,-0.11 -0.04,-0.16c-0.02,-0.1 -0.04,-0.2 -0.06,-0.31c-0.01,-0.04 -0.01,-0.08 -0.02,-0.12a10.21,10.21 0 0 1 -0.26,-1.32a6.87,6.87 0 0 0 -0.79,-2.97c-0.64,-0.95 -1.78,-1.03 -2.7,-1.6a2.4,2.4 0 0 1 -0.31,-0.23c-0.05,-0.04 -0.11,-0.07 -0.16,-0.11a1.64,1.64 0 0 1 -0.16,-0.14a0.97,0.97 0 0 1 -0.12,-0.14a0.8,0.8 0 0 1 -0.08,-0.13a0.92,0.92 0 0 1 -0.06,-0.15a1.58,1.58 0 0 1 -0.05,-0.17c0,-0.03 -0.01,-0.07 -0.01,-0.1a3.59,3.59 0 0 1 -0.13,-1.68c0.13,-1.03 0.69,-2.39 -0.2,-3.24a6.12,6.12 0 0 0 -2.44,-1.03a4.91,4.91 0 0 1 -1.9,-0.99c-0.02,-0.02 -0.05,-0.03 -0.07,-0.05a1.26,1.26 0 0 1 -0.17,-0.13a1.07,1.07 0 0 1 -0.15,-0.16a1.96,1.96 0 0 1 -0.11,-0.2c-0.01,-0.03 -0.03,-0.06 -0.04,-0.09c-0.02,-0.05 -0.05,-0.1 -0.07,-0.15c-0.03,-0.08 -0.06,-0.16 -0.09,-0.24c-0.01,-0.02 -0.01,-0.04 -0.02,-0.06l-0.02,-0.08c-0.61,-1.69 0.17,-3.69 -0.75,-5.31a4.96,4.96 0 0 0 -2.79,-1.93q-1.1,-0.41 -2.19,-0.81c-0.67,-0.25 -1.36,-0.48 -2,-0.79a2.89,2.89 0 0 1 -1.05,-0.79c-0.04,-0.04 -0.09,-0.08 -0.13,-0.12a1.87,1.87 0 0 1 -0.14,-0.13a0.68,0.68 0 0 1 -0.08,-0.14c-0.02,-0.04 -0.04,-0.08 -0.05,-0.12a2.13,2.13 0 0 1 -0.11,-0.35a1.43,1.43 0 0 1 -0.03,-0.25c0,-0.06 0,-0.12 0,-0.18c0.01,-0.31 0.02,-0.61 0.03,-0.92l0,0.01c0.01,-0.09 0.01,-0.18 0.01,-0.27a4.42,4.42 0 0 0 -1.34,-2.79c-1.91,-1.9 -4.73,-2.26 -7.31,-2.6a0.36,0.36 0 0 1 -0.13,-0.05a0.87,0.87 0 0 0 0.71,0.62l0.18,0.03l0.17,0.03c0.12,0.02 0.24,0.04 0.36,0.07c0.13,0.02 0.25,0.04 0.37,0.07l0.15,0.03l0.32,0.06l0.05,0.01c0.1,0.02 0.19,0.04 0.28,0.05c0.15,0.08 0.29,0.16 0.44,0.25a5.1,5.1 0 0 1 0.88,0.66a5.08,5.08 0 0 1 0.61,0.78a4.84,4.84 0 0 1 0.43,1.05a6.2,6.2 0 0 1 0.14,1.55c-0.03,0.51 -0.12,1.05 -0.19,1.52a9.63,9.63 0 0 0 -0.18,2.63a3.03,3.03 0 0 0 0.24,0.94a2.52,2.52 0 0 0 0.63,0.82a1.92,1.92 0 0 0 0.27,0.18l0.06,0.04a4.43,4.43 0 0 0 0.55,0.3a2.55,2.55 0 0 0 1,0.22c0.24,0.01 0.49,0.01 0.73,0.01l0.11,0l0.1,0.01l0.11,0c0.2,0 0.39,0 0.59,0.01a9.12,9.12 0 0 1 1.39,0.16a3.76,3.76 0 0 1 0.44,0.18a2.45,2.45 0 0 1 0.28,0.22a2,2 0 0 1 0.18,0.23a2.97,2.97 0 0 1 0.17,0.41a4.72,4.72 0 0 1 0.07,0.98c-0.04,0.62 -0.14,1.24 -0.24,1.85c-0.04,0.25 -0.08,0.51 -0.12,0.76a3.88,3.88 0 0 0 -0.04,0.81a2.22,2.22 0 0 0 0.08,0.44a2.85,2.85 0 0 0 0.2,0.55a3.09,3.09 0 0 0 0.53,0.75a3.81,3.81 0 0 0 0.88,0.67a7.64,7.64 0 0 0 2,0.68l0.1,0.02c0.2,0.05 0.38,0.1 0.56,0.15a7.12,7.12 0 0 1 1.24,0.52a6.37,6.37 0 0 1 1.06,0.82a5.72,5.72 0 0 1 0.8,0.99a5.55,5.55 0 0 1 0.46,1.14a12.63,12.63 0 0 1 0.23,1.71l0.02,0.17l0.02,0.18c0.01,0.15 0.02,0.31 0.05,0.47l0,0.05l0.05,0.35a5.56,5.56 0 0 0 0.14,0.67l0.02,0.07a4.66,4.66 0 0 0 0.32,0.82a2.15,2.15 0 0 0 0.64,0.84a3.26,3.26 0 0 0 1.45,0.46l0.09,0.02c0.16,0.02 0.33,0.03 0.49,0.04l0.23,0.02a8.62,8.62 0 0 1 1.12,0.16a4.62,4.62 0 0 1 0.58,0.25a3.98,3.98 0 0 1 0.47,0.36a2.08,2.08 0 0 1 0.57,0.99a8.57,8.57 0 0 1 0.12,1.8c0,0.18 0,0.37 0,0.55c0,0.11 0.01,0.21 0.02,0.31l0.01,0.14a4.73,4.73 0 0 0 0.22,1.16c0.03,0.08 0.05,0.17 0.09,0.26a2.28,2.28 0 0 0 0.28,0.58a2.36,2.36 0 0 0 0.42,0.44l0.08,0.07a4.9,4.9 0 0 0 0.38,0.31c0.4,0.28 0.83,0.56 1.24,0.82l0.08,0.05l0.25,0.16l0.25,0.16c0.25,0.17 0.52,0.36 0.82,0.58c0.2,0.15 0.37,0.3 0.6,0.51l0.17,0.15c0.27,0.24 0.53,0.49 0.76,0.71l0.04,0.04z" id="svg_9"/>
  <path d="m56.86,101.22l-0.01,-0.02l0,0.01l0.01,0.01z" id="svg_10"/>
  <path d="m77.62,62.07c-0.01,-0.14 -0.02,-0.27 -0.04,-0.4c-0.01,-0.07 -0.02,-0.13 -0.02,-0.2a4.08,4.08 0 0 0 -0.06,-0.41c-0.05,-0.21 -0.09,-0.42 -0.14,-0.63l-0.07,-0.3l-0.02,-0.09l-0.01,-0.04l-0.04,-0.15a5.86,5.86 0 0 1 -0.16,-1.37a3.76,3.76 0 0 1 0.17,-0.86a8.71,8.71 0 0 1 1.02,-1.74c-0.2,0.05 -0.4,0.09 -0.6,0.14l-0.02,0c-0.42,0.15 -0.82,0.31 -1.24,0.44c-0.21,0.07 -0.43,0.12 -0.64,0.2c-0.24,0.08 -0.48,0.17 -0.72,0.24c-0.13,0.04 -0.26,0.08 -0.38,0.12a10.59,10.59 0 0 1 -1.03,3.66a9.26,9.26 0 0 1 -0.82,1.34c-0.03,0.05 -0.05,0.1 -0.08,0.15a2.12,2.12 0 0 1 -0.21,0.31a2.77,2.77 0 0 1 -0.24,0.26l-0.15,0.15l-0.02,0.01c-0.3,0.35 -0.63,0.7 -0.97,1.03a3.97,3.97 0 0 0 -1.04,1.45a6.09,6.09 0 0 0 -0.32,1.85c-0.05,1.27 0.12,2.54 0.09,3.81a6.36,6.36 0 0 1 -1.01,3.43a12.09,12.09 0 0 0 -1.97,3.17c-0.7,2.44 0.36,5 -0.17,7.47a7.19,7.19 0 0 1 -4.07,4.89a0.38,0.38 0 0 1 -0.06,0.01a12.02,12.02 0 0 1 0.04,1.46l0,-0.03a11.98,11.98 0 0 1 -0.11,1.32c-0.03,0.19 -0.07,0.38 -0.09,0.58c-0.02,0.19 -0.04,0.37 -0.07,0.56c-0.07,0.5 -0.16,0.99 -0.25,1.48c-0.09,0.46 -0.17,0.93 -0.29,1.38c-0.13,0.48 -0.28,0.95 -0.39,1.42a12.07,12.07 0 0 1 -0.41,1.32l0,0l0,0l0,0l0,0.01l0,0l0,0l0,0l0,0l0,0l-0.01,0.01l0.01,0c-0.01,0.02 -0.02,0.03 -0.02,0.05a0.09,0.09 0 0 0 -0.01,0.02c-0.08,0.22 -0.15,0.44 -0.23,0.66c-0.07,0.19 -0.16,0.38 -0.25,0.56c-0.16,0.34 -0.3,0.7 -0.43,1.05c-0.07,0.21 -0.13,0.42 -0.17,0.64c-0.06,0.23 -0.12,0.47 -0.15,0.71c-0.06,0.46 -0.08,0.93 -0.16,1.39q-0.12,0.75 -0.26,1.49c-0.1,0.48 -0.24,0.97 -0.38,1.44c-0.15,0.52 -0.34,1.02 -0.53,1.52c-0.17,0.43 -0.38,0.85 -0.58,1.27a11.72,11.72 0 0 1 -0.71,1.22c-0.24,0.39 -0.46,0.79 -0.7,1.18c-0.12,0.19 -0.25,0.37 -0.37,0.55c-0.07,0.1 -0.13,0.19 -0.19,0.29c-0.14,0.32 -0.3,0.63 -0.43,0.87l-0.05,0.09c-0.14,0.26 -0.27,0.51 -0.42,0.75c-0.01,0.03 -0.03,0.06 -0.05,0.09c-0.01,0.05 -0.02,0.1 -0.03,0.16c-0.04,0.19 -0.07,0.39 -0.11,0.58c-0.06,0.4 -0.12,0.81 -0.17,1.21c-0.02,0.27 -0.05,0.54 -0.07,0.81c0.03,0.21 0.05,0.39 0.06,0.58c0.01,0.22 0.01,0.44 0.02,0.67c0,0.17 0,0.34 0.01,0.51l0.02,0.58c0.02,0.58 0.05,1.16 0.06,1.74c0.01,0.31 0.01,0.63 0.02,0.94l0.01,0.47c0,0.15 0.01,0.3 0.02,0.45c0.53,0.01 1.07,0.02 1.6,0.04c0,-0.04 0,-0.07 0,-0.1c-0.02,-0.29 -0.02,-0.57 -0.02,-0.85l0,-0.16l0,-0.16l0,-0.16c0.03,-0.23 0.07,-0.46 0.11,-0.69a12.77,12.77 0 0 1 0.48,-2.14a9,9 0 0 1 0.6,-1.27c0.07,-0.11 0.14,-0.22 0.21,-0.33l0.07,-0.13l0.02,-0.03l0.07,-0.11c0.19,-0.3 0.37,-0.57 0.54,-0.82c0.21,-0.28 0.41,-0.57 0.6,-0.87l0.09,-0.13l0.03,-0.04a9.26,9.26 0 0 0 0.5,-0.81a6.6,6.6 0 0 0 0.41,-1.02a7.04,7.04 0 0 0 0.25,-0.98l0.03,-0.22a13.7,13.7 0 0 1 0.42,-1.9a11.01,11.01 0 0 1 1.26,-2.24q0.48,-0.65 0.98,-1.29q0.29,-0.39 0.59,-0.77c0.2,-0.28 0.42,-0.56 0.63,-0.83l0.03,-0.04c0.35,-0.46 0.73,-0.95 1.08,-1.44l0.06,-0.08c0.28,-0.38 0.53,-0.73 0.75,-1.1a10.07,10.07 0 0 0 0.63,-1.2a4.3,4.3 0 0 0 0.15,-0.42a1.01,1.01 0 0 0 0.02,-0.38l0,-0.06a1.3,1.3 0 0 0 -0.06,-0.31l-0.02,-0.06a1.29,1.29 0 0 0 -0.13,-0.25l-0.05,-0.09c-0.03,-0.06 -0.07,-0.12 -0.1,-0.18l-0.05,-0.08c-0.22,-0.39 -0.43,-0.81 -0.61,-1.16a8,8 0 0 1 -0.57,-1.38a5.37,5.37 0 0 1 -0.12,-1.24a5.65,5.65 0 0 1 0.24,-1.25a2.21,2.21 0 0 1 0.16,-0.31a6.08,6.08 0 0 1 0.68,-0.68l0.36,-0.29l0.17,-0.14c0.36,-0.29 0.72,-0.59 1.08,-0.89a7.58,7.58 0 0 0 1.18,-1.36a7.7,7.7 0 0 0 0.73,-1.16a4.82,4.82 0 0 0 0.35,-1.13a7.14,7.14 0 0 0 0.13,-1.32a7.53,7.53 0 0 0 -0.27,-1.83l-0.06,-0.23l-0.03,-0.15c-0.05,-0.16 -0.09,-0.32 -0.12,-0.49l-0.04,-0.16l-0.02,-0.09c-0.02,-0.12 -0.05,-0.25 -0.07,-0.38a6.33,6.33 0 0 1 -0.09,-1.17a4.68,4.68 0 0 1 0.22,-1.09a11.45,11.45 0 0 1 1.44,-2.42l0.07,-0.11a19.89,19.89 0 0 0 1.15,-1.73a7.76,7.76 0 0 0 0.61,-1.42a4.49,4.49 0 0 0 -0.02,-2.33a10.7,10.7 0 0 0 -0.28,-1.05l-0.08,-0.23l-0.02,-0.08c-0.08,-0.24 -0.16,-0.48 -0.22,-0.72a4.79,4.79 0 0 1 -0.13,-1.12a3.19,3.19 0 0 1 0.13,-0.67a5.5,5.5 0 0 1 0.52,-0.95a8.06,8.06 0 0 1 0.71,-0.84l0.24,-0.25l0.25,-0.24l0.36,-0.37q0.26,-0.26 0.52,-0.52a15.75,15.75 0 0 0 1.48,-1.83c0.1,-0.14 0.2,-0.28 0.31,-0.43l0.09,-0.13a2.93,2.93 0 0 0 0.32,-0.58a5.92,5.92 0 0 0 0.27,-0.82a4.14,4.14 0 0 0 0.08,-0.79a5.51,5.51 0 0 0 -0.01,-0.58l-0.01,-0.18z" id="svg_11"/>
  <polygon id="svg_12" points="61.01300024986267,99.5009994506836 61.01300024986267,99.50199890136719 61.01200079917908,99.50199890136719 61.01300024986267,99.5009994506836 "/>
  <path d="m62.49,89.23a6.68,6.68 0 0 0 2.55,-2.19a6.2,6.2 0 0 0 1.05,-3.57c0.01,-2.39 -0.71,-4.91 0.51,-7.15c0.58,-1.06 1.51,-1.91 2.02,-3.01a7.71,7.71 0 0 0 0.44,-3.59c-0.03,-0.58 -0.06,-1.16 -0.07,-1.75l0,-0.05c0,-0.03 -0.01,-0.06 -0.01,-0.09l0,-0.17l-0.01,-0.21c0,-0.03 0,-0.06 0,-0.09c0,-0.13 0.01,-0.26 0.01,-0.39c0,-0.08 0.01,-0.16 0.01,-0.24c0.01,-0.08 0.02,-0.16 0.02,-0.25c0.01,-0.02 0.01,-0.04 0.01,-0.07c0.02,-0.12 0.03,-0.25 0.05,-0.37a3.62,3.62 0 0 1 0.15,-0.62a3.43,3.43 0 0 1 0.13,-0.36c0.03,-0.06 0.06,-0.12 0.09,-0.18c0.02,-0.03 0.04,-0.06 0.06,-0.09a3.71,3.71 0 0 1 0.21,-0.37a7.91,7.91 0 0 1 1.2,-1.34a9.88,9.88 0 0 0 2.92,-5.74c-0.07,0.02 -0.13,0.05 -0.2,0.08c-0.19,0.1 -0.38,0.2 -0.56,0.31c-0.18,0.11 -0.36,0.2 -0.53,0.31c-0.12,0.08 -0.25,0.17 -0.37,0.25c-0.07,0.08 -0.13,0.17 -0.19,0.25c-0.05,0.06 -0.1,0.13 -0.14,0.19l0.02,-0.03c-0.04,0.05 -0.08,0.11 -0.12,0.16l0,0.01l0,-0.01l0,0l0,0.01l-0.01,0l0,0.01c-0.02,0.03 -0.04,0.05 -0.05,0.07c0.01,-0.01 0.02,-0.03 0.04,-0.05c-0.03,0.03 -0.06,0.07 -0.08,0.11c-0.05,0.07 -0.1,0.14 -0.15,0.21l0.07,-0.11c-0.04,0.07 -0.08,0.13 -0.12,0.2c-0.02,0.05 -0.03,0.1 -0.04,0.15a3.62,3.62 0 0 1 -0.3,0.59c-0.06,0.08 -0.13,0.16 -0.19,0.24a6.11,6.11 0 0 1 -0.43,0.8a3.93,3.93 0 0 1 -0.38,0.49a3.42,3.42 0 0 1 -0.52,0.44c-0.16,0.12 -0.34,0.24 -0.51,0.35c-0.19,0.1 -0.39,0.19 -0.58,0.29c-0.11,0.05 -0.22,0.1 -0.33,0.16a8.72,8.72 0 0 0 -0.75,0.82a8.22,8.22 0 0 0 -0.74,1.14a6.58,6.58 0 0 0 -0.35,0.85l-0.07,0.19a6.02,6.02 0 0 0 -0.37,1.62a8.91,8.91 0 0 0 0.3,2.52l0.05,0.21l0.07,0.35l0.04,0.17a8.05,8.05 0 0 1 0.21,1.55a4.05,4.05 0 0 1 -0.14,0.76a5.33,5.33 0 0 1 -0.56,1.03c-0.17,0.23 -0.34,0.44 -0.52,0.66l-0.08,0.1l-0.05,0.07c-0.16,0.2 -0.32,0.39 -0.47,0.59c-0.23,0.3 -0.45,0.61 -0.66,0.92a6.84,6.84 0 0 0 -0.44,0.77a4.62,4.62 0 0 0 -0.5,2.12l0,0.11c0,0.09 0,0.19 0.01,0.28l0.01,0.1l0.01,0.11a3.87,3.87 0 0 0 0.15,0.7c0.06,0.24 0.14,0.44 0.2,0.62l0.09,0.23c0.1,0.29 0.19,0.58 0.28,0.86c0.01,0.03 0.02,0.06 0.03,0.09l0.02,0.04l0.01,0.04l0.01,0.07a0.24,0.24 0 0 0 0.01,0.06c0.05,0.19 0.09,0.37 0.12,0.56a9.18,9.18 0 0 1 0.1,1.73a6.93,6.93 0 0 1 -0.27,1.32a2.43,2.43 0 0 1 -0.15,0.33a3.5,3.5 0 0 1 -0.47,0.49c-0.14,0.12 -0.29,0.25 -0.44,0.37l-0.25,0.21c-0.14,0.11 -0.28,0.22 -0.43,0.34c0.06,0.2 0.11,0.4 0.17,0.6c0.06,0.23 0.1,0.47 0.15,0.71z" id="svg_13"/>
 </g>
</svg>