<?xml version="1.0"?>
<svg width="100" height="125" xmlns="http://www.w3.org/2000/svg" xmlns:svg="http://www.w3.org/2000/svg" enable-background="new 0 0 100 100" version="1.1" xml:space="preserve">
 <g class="layer">
  <title>Layer 1</title>
  <path d="m29.49,91.85c0,0 0.01,-0.01 0.01,-0.01c0,0.01 -0.01,0.01 -0.01,0.01zm59.78,-56.35c-0.15,0.11 -0.32,0.2 -0.48,0.3c-0.31,0.26 -0.62,0.5 -0.96,0.71c-0.19,0.11 -0.38,0.23 -0.57,0.34c-0.01,0.64 -0.28,1.26 -0.73,1.72c-0.29,0.29 -0.71,0.55 -1.14,0.67c-0.02,0.07 -0.04,0.15 -0.05,0.23c0.3,0.1 0.6,0.26 0.85,0.52c0.28,0.29 0.49,0.68 0.59,1.11c1.07,0.26 2.01,1.16 2.3,2.19c0.39,1.45 -0.49,3.5 -2.13,3.74c-0.18,0.03 -0.38,0.05 -0.57,0.08c0.06,0.24 0.1,0.49 0.1,0.73c0.07,0.81 -0.17,1.76 -0.8,2.25c-0.02,0.02 -0.03,0.03 -0.05,0.04c-0.36,0.36 -0.78,0.6 -1.26,0.73c-0.5,0.14 -1.01,0.14 -1.51,0c-0.07,-0.02 -0.14,-0.04 -0.2,-0.07c-0.08,0.3 -0.15,0.59 -0.23,0.89c0.44,0.17 0.83,0.47 1.05,0.9c0.16,0.31 0.23,0.55 0.28,0.82c-0.01,-0.06 -0.02,-0.11 -0.03,-0.17c0.01,0.05 0.03,0.1 0.05,0.15c0.08,0.18 0.11,0.39 0.11,0.61c0.95,0.36 1.76,0.96 2.16,1.79c0.74,1.48 0.41,3.27 -1.08,4.14c-0.77,0.46 -1.64,0.51 -2.42,0.26c-0.05,0.37 -0.17,0.74 -0.36,1.06c-0.67,1.16 -2.31,1.76 -3.55,1.14c-0.34,0.69 -0.69,1.38 -1.07,2.05c0.96,0.68 1.46,1.92 1.14,3.11c-0.07,0.26 -0.2,0.54 -0.36,0.8c1.18,0.77 2.21,1.82 2.8,3.05c0.74,1.56 0.44,3.4 -1.14,4.33c-1.91,1.12 -3.89,-0.03 -4.64,-1.89c0.13,0.33 -0.35,-0.34 -0.46,-0.41c-0.39,-0.29 -0.82,-0.53 -1.26,-0.76c-0.27,0.12 -0.55,0.22 -0.84,0.3c-0.22,0.07 -0.42,0.12 -0.65,0.15c-0.01,0.01 -0.7,0.2 -0.32,0.04c-0.7,0.3 -1.47,0.33 -2.1,0.07c-1.05,0.86 -2.11,1.7 -3.17,2.52c0.17,0.33 0.27,0.7 0.27,1.1c0,0.87 -0.33,1.84 -1,2.44c0.1,0.13 0.2,0.26 0.28,0.4c0.81,1.35 0.31,3.15 -1.03,3.94c-0.67,0.39 -1.48,0.49 -2.22,0.29c-0.86,-0.24 -1.45,-0.81 -1.82,-1.56c0.02,0.05 0.04,0.1 0.06,0.15c-0.02,-0.07 -0.06,-0.13 -0.1,-0.19c-0.56,0.23 -1.22,0.17 -1.75,-0.11c-0.02,-0.01 -0.04,-0.02 -0.06,-0.03c-0.09,-0.05 -0.18,-0.12 -0.26,-0.18c-2.61,2.25 -5.25,4.41 -8.25,6.17c-0.24,0.2 -0.48,0.4 -0.73,0.6c0.23,-0.09 0.49,-0.12 0.77,-0.04c0.7,0.19 1.12,0.94 0.93,1.64c-0.19,0.69 -0.94,1.11 -1.64,0.92c-0.5,-0.13 -0.83,-0.53 -0.93,-1c-0.09,0 -0.18,0 -0.27,0c-0.24,0.01 -0.47,-0.03 -0.7,-0.1c-0.02,-0.01 -0.03,-0.03 -0.04,-0.04c-0.25,0.17 -0.49,0.36 -0.75,0.52c-3.08,2 -6.27,3.65 -9.08,6.03c1.49,-0.41 2.99,-0.68 4.5,-0.87c0.02,-0.09 0.03,-0.17 0.05,-0.3c0.09,-0.22 0.16,-0.44 0.27,-0.64c0.55,-0.99 1.63,-1.23 2.65,-1.29c0.96,-0.06 1.96,0.17 2.75,0.69c0.85,-0.33 1.71,-0.64 2.57,-0.94c0,-0.07 0.01,-0.17 0.01,-0.23c0,-0.51 0.18,-1.15 0.44,-1.58c0.97,-1.62 2.42,-2.6 4.36,-2.24c0.25,0.05 0.49,0.14 0.71,0.27c0.23,-0.08 0.47,-0.13 0.72,-0.13c0.62,0 1.1,0.25 1.56,0.64c0.02,0.02 0.03,0.04 0.05,0.05c0.19,0.16 0.32,0.35 0.43,0.56c1.34,-0.44 2.68,-0.9 3.99,-1.44c0.04,-0.11 0.08,-0.22 0.12,-0.34c0.13,-0.34 0.27,-0.68 0.42,-1.02c0,-0.01 0,-0.01 0.01,-0.02c0.01,-0.04 0.03,-0.1 0.07,-0.2c-0.05,0.14 0.72,-1.93 0.24,-0.57c0.2,-0.57 0.45,-1.12 0.92,-1.51c1.6,-1.38 3.76,-0.95 4.69,0.81c0.88,-0.41 1.73,-0.85 2.49,-1.33c3.44,-2.19 6.69,3.36 3.19,5.46c-1.87,1.12 -4.11,1.75 -6.18,2.52c0.28,1 -0.04,2.19 -1.04,2.66c-0.02,0.01 -0.04,0.02 -0.06,0.03c-0.15,0.09 -0.31,0.15 -0.46,0.2c-0.02,0.73 -0.3,1.45 -0.88,2.03c-1.36,1.36 -3.53,1.11 -4.67,-0.32c-0.66,0.22 -1.41,0.16 -2.02,-0.2c-0.45,-0.27 -0.78,-0.66 -0.98,-1.11c-2.95,0.68 -5.96,1.09 -8.98,1.22c-0.21,0.72 -0.79,1.3 -1.56,1.56c-0.02,0.01 -0.03,0.02 -0.05,0.02c-0.09,0.03 -0.18,0.04 -0.27,0.06c0.06,0.62 0.04,1.17 -0.3,1.76c-0.35,0.59 -0.92,1.03 -1.58,1.21c-1.33,0.37 -2.93,-0.44 -3.24,-1.84c-0.04,-0.19 -0.13,-0.74 -0.15,-0.86c-0.05,-0.28 -0.09,-0.56 -0.13,-0.84c-0.03,-0.24 -0.07,-0.63 -0.07,-0.76c-0.01,-0.1 0,-0.2 0.01,-0.3c0.01,-0.11 0.02,-0.2 0.03,-0.28c-0.46,-0.06 -0.92,-0.11 -1.39,-0.18c-0.12,-0.02 -0.17,-0.14 -0.17,-0.25c-1.28,0.22 -2.57,0.47 -3.86,0.79c-0.09,0.03 -0.17,0.01 -0.24,-0.02c-0.68,0.66 -1.3,1.4 -1.9,2.16c0.03,-0.01 0.07,-0.02 0.1,-0.03c0.67,-0.1 1.34,0.16 1.54,0.88c0.21,0.75 -0.39,1.64 -1.21,1.59c-0.35,-0.03 -0.73,-0.08 -1.07,-0.24c-0.03,0.02 -0.07,0.04 -0.1,0.06c-0.19,0.11 -0.36,0.26 -0.53,0.4c-0.28,0.25 -0.57,0.44 -0.86,0.66c-0.02,0.02 -0.05,0.01 -0.07,0.02c-0.52,0.94 -1.01,1.9 -1.42,2.87c0.02,0.51 0.05,1.01 0.05,1.52c0,0.65 -1.02,0.65 -1.01,0c0,-0.03 0,-0.07 0,-0.1c-0.1,-0.08 -0.17,-0.22 -0.1,-0.39c0.04,-0.08 0.07,-0.15 0.1,-0.23c0,-3 -0.43,-5.92 -1.08,-8.79c-0.02,0 -0.03,0.01 -0.04,0c-0.17,-0.02 -0.3,-0.12 -0.43,-0.23c-0.04,0 -0.08,-0.01 -0.12,-0.02c-0.33,0.01 -0.64,-0.13 -0.93,-0.32c-0.03,-0.01 -0.15,-0.07 -0.24,-0.11c-0.24,0.07 -0.51,0.09 -0.79,0.01c-0.65,-0.18 -1.12,-0.79 -1.12,-1.46c0,-1.34 1.64,-1.98 2.59,-1.07l0,0c0.1,0.05 0.2,0.11 0.3,0.16c-0.59,-2.05 -1.26,-4.08 -1.99,-6.1c-0.33,-0.58 -0.66,-1.16 -0.98,-1.74c-0.04,0 -0.09,0.01 -0.14,0c-0.09,-0.01 -0.28,-0.04 -0.36,-0.05c-0.1,0.08 -0.21,0.15 -0.29,0.19c-0.09,0.04 -0.17,0.07 -0.23,0.1c-0.1,0.04 -0.24,0.09 -0.45,0.17c-0.25,0.1 -0.53,0.13 -0.79,0.1c-0.91,-0.08 -1.68,-0.42 -2.16,-1.23c-0.45,-0.78 -0.45,-1.76 0,-2.53c0.49,-0.84 1.32,-1.22 2.14,-1.21c-0.92,-1.93 -1.75,-3.88 -2.5,-5.86c-0.55,0.06 -1.08,0.01 -1.58,-0.29c-0.54,-0.31 -0.97,-0.85 -1.12,-1.45c-0.01,-0.03 -0.02,-0.06 -0.02,-0.09c-0.05,-0.19 -0.08,-0.38 -0.08,-0.57c-0.81,-0.34 -1.5,-0.71 -2.21,-1.23c-0.71,-0.5 -0.83,-0.57 -1.45,-0.53c-3.77,0.28 -3.83,-5.86 0,-5.91c0.69,-0.01 1.3,0.11 1.85,0.31c0.12,-0.46 0.35,-0.86 0.69,-1.26c0.15,-0.18 0.36,-0.32 0.6,-0.42c-0.14,-0.7 -0.28,-1.39 -0.41,-2.09c-0.08,0.01 -0.17,0.03 -0.26,0.03c-1.23,0 -2.25,-1.02 -2.25,-2.25c0,-0.39 0.11,-0.75 0.29,-1.08c-0.63,-0.2 -1.27,-0.38 -1.9,-0.52c-1.55,-0.35 -2.45,-2.12 -2.04,-3.6c0.5,-1.83 2.66,-2.69 4.29,-1.74c0.37,0.21 0.72,0.45 1.06,0.71c-0.02,-0.7 -0.03,-1.4 -0.04,-2.1c-0.56,-0.56 -1.07,-1.19 -1.46,-1.78c-0.56,-0.86 -1.05,-1.93 -1.85,-2.42c-2.63,-1.59 -1.26,-5.22 1,-5.71c0,-0.09 0,-0.17 0,-0.26c-0.01,-1.13 0.81,-2.15 1.89,-2.39c0.08,-0.88 0.27,-1.69 0.63,-2.36c-0.22,-0.68 -0.37,-1.35 -0.44,-1.89c-0.25,-1.98 -0.28,-3.89 1.11,-5.46c1.34,-1.5 4.1,-0.73 4.54,1.2c0.35,1.52 -0.07,3.36 -0.29,4.92c0.03,0.02 0.05,0.05 0.08,0.07c0.1,-0.07 0.2,-0.15 0.31,-0.21c2.75,-1.67 5.99,2.36 3.48,4.52c-0.43,0.37 -0.79,0.78 -1.13,1.22c0.67,0.46 1.07,1.22 1.11,2.09c0.02,0.52 -0.1,1.04 -0.37,1.49c-0.16,0.27 -0.41,0.53 -0.61,0.78c-0.42,0.52 -1.04,0.79 -1.68,0.86c-0.01,0.38 -0.01,0.76 -0.01,1.14c0,1.23 -0.01,2.45 -0.01,3.68c0.1,0.06 0.2,0.12 0.29,0.2c0.29,0.25 0.46,0.59 0.52,0.96c0.89,-0.19 1.84,0.11 2.62,0.73c0.01,0 0.02,0.01 0.04,0.02c0.96,0.75 1,2.39 0.43,3.37c-0.46,0.79 -1.28,1.27 -2.16,1.35c0.17,0.29 0.27,0.62 0.27,0.97c0,1.01 -0.79,1.86 -1.78,1.96c0.01,0.01 0.01,0.02 0.01,0.03c0.16,-0.03 0.34,-0.05 0.51,-0.05c0.96,0 1.8,0.52 2.28,1.28c1.51,-0.64 3.6,0.56 3.45,2.32c-0.14,1.72 -1.29,3.47 -2.45,4.74c-0.2,0.23 -0.41,0.43 -0.63,0.61c0.51,0.49 0.83,1.16 0.83,1.91c0,0.98 -0.55,1.84 -1.36,2.3c0.53,2.01 1.04,4.02 1.43,6.04c0.81,-0.25 1.71,-0.11 2.41,0.59c1.11,1.11 0.89,3.11 -0.5,3.89c-0.01,0 -0.01,0 -0.01,0c-0.01,0.01 -0.01,0.02 -0.03,0.03c-0.08,0.08 -0.43,0.45 -0.36,0.31c-0.17,0.24 -0.32,0.49 -0.53,0.7c-0.08,0.08 -0.15,0.14 -0.24,0.2c0.04,0.74 0.04,1.49 0.02,2.24c0.45,1.29 0.88,2.58 1.29,3.89c0.03,-0.18 0.08,-0.36 0.16,-0.54c-0.12,0.28 0.18,-0.47 0.14,-0.42c0.23,-0.38 0.59,-0.67 1.04,-0.74c1.8,-0.32 2.48,2.1 0.75,2.74c-0.19,0.07 -0.37,0.09 -0.56,0.08c0,0 0,0 0,0c-0.04,0.13 -0.07,0.26 -0.09,0.39c-0.03,0.16 -0.02,0.33 -0.03,0.48c0.09,0.29 0.11,0.54 0.09,0.86c-0.02,0.4 0.05,0.84 -0.06,1.23c-0.05,0.15 -0.14,0.23 -0.24,0.29c0.51,2.11 0.9,4.24 1.13,6.42c0.34,-1.97 0.96,-3.92 1.53,-5.83c-0.06,-0.03 -0.1,-0.07 -0.13,-0.13c-0.01,-0.01 -0.02,-0.03 -0.02,-0.04c-0.6,-0.05 -0.98,-0.53 -1.05,-1.08c0,-0.01 0,-0.01 0,-0.01c0,-0.06 -0.01,-0.11 -0.01,-0.17c0,0 0,0 0,0.01c0,-0.02 0,-0.03 0,-0.05c0,0.01 0,0.03 0,0.04c0,0 -0.01,0 -0.01,0c0.05,-0.5 0.05,-0.37 0.03,-0.26c0,0.03 0,0.06 -0.01,0.09c0.01,-0.05 0.01,-0.1 0.02,-0.15c0.08,-0.39 0.45,-0.72 0.83,-0.83c0.38,-0.1 0.71,0 0.99,0.21c0.34,-1.34 0.65,-2.68 0.88,-4.03c-0.08,-0.04 -0.16,-0.08 -0.23,-0.15c-0.08,-0.06 -0.14,-0.14 -0.19,-0.23c-0.05,-0.01 -0.1,0 -0.15,-0.01c-0.66,-0.14 -1.03,-0.9 -0.86,-1.51c0.21,-0.76 1.13,-1.15 1.8,-0.74c0.01,0.01 0.02,0.01 0.02,0.02c0.1,-0.73 0.17,-1.47 0.24,-2.21c-0.13,-0.05 -0.23,-0.14 -0.26,-0.3c-0.35,-2.07 -0.59,-3.02 0.06,-5.12c0.18,-0.58 0.3,-1.16 0.39,-1.75c-0.5,-0.95 -0.29,-1.94 0.19,-2.87c0.01,-0.73 0,-1.45 0.01,-2.17c-0.14,-0.13 -0.27,-0.29 -0.33,-0.49c-0.28,-1 -0.25,-2.09 -0.34,-3.14c-1,-1.81 -1.41,-3.96 -1.97,-5.98c-0.55,0.22 -1.19,0.23 -1.8,-0.06c-0.74,-0.35 -1.13,-0.93 -1.54,-1.6c-0.3,-0.49 -0.64,-1.01 -0.74,-1.6c-0.16,-1.03 0.26,-1.77 1.23,-2.16c0.34,-0.14 0.71,-0.15 1.09,-0.09c-0.52,-1.65 -1.01,-3.31 -1.42,-5c-0.08,-0.32 -0.14,-0.65 -0.21,-0.98c-0.16,-0.14 -0.33,-0.28 -0.51,-0.39c-0.15,-0.09 -0.3,-0.2 -0.44,-0.3c-0.27,0.32 -0.71,0.53 -1.11,0.53c-0.79,0 -1.41,-0.65 -1.43,-1.43c0,-0.04 0,-0.07 0,-0.11c0,-0.32 0.11,-0.61 0.28,-0.84c-0.81,-0.81 -1.14,-1.96 -0.5,-3.05c0.56,-0.96 1.54,-1.31 2.49,-1.15c-0.47,-1.9 -0.7,-3.89 -0.63,-5.84c0.05,-1.51 1.21,-2.73 2.74,-2.74c0.05,0 0.1,0 0.14,0c1.83,-0.03 3.04,1.87 2.59,3.46c0,0.26 0,0.51 0,0.77c1.5,0.07 2.92,1.26 2.39,3.24c-0.27,0.98 -0.61,1.99 -1.13,2.87c0.33,0.23 0.59,0.55 0.68,0.95c0.09,0.36 0.11,0.66 0.01,1.01c-0.06,0.18 -0.14,0.35 -0.22,0.52c-0.1,0.13 -0.19,0.26 -0.29,0.38c-0.45,0.36 -0.51,0.4 -0.17,0.13c-0.32,0.24 -0.6,0.43 -0.96,0.51c0.25,0.84 0.51,1.67 0.75,2.51c0.16,0.54 0.32,1.07 0.49,1.6c0.66,-0.25 1.46,-0.14 1.81,0.5c-0.05,-0.71 -0.12,-1.33 -0.13,-1.6c-0.08,-2.07 0.03,-4.14 0.08,-6.21c-0.06,-0.13 -0.12,-0.26 -0.18,-0.4c-0.61,-1.32 -0.74,-2.87 -0.09,-4.19c0.1,-0.2 0.22,-0.35 0.35,-0.49c0.03,-1.58 0.08,-3.16 0.2,-4.74c-0.45,-1.02 -0.65,-2.27 -0.76,-3.29c-0.89,-1.27 -1.02,-3.15 -0.25,-4.52c0.05,-0.09 0.12,-0.16 0.18,-0.24c-3.68,-0.63 -1.81,-6.29 1.52,-4.49c0.5,0.28 0.95,0.62 1.36,1c0.05,-0.27 0.13,-0.75 0.14,-0.84c0.07,-0.37 0.1,-0.75 0.2,-1.12c0.06,-0.22 0.13,-0.46 0.21,-0.72c-0.02,-0.03 -0.05,-0.06 -0.08,-0.1c-0.07,-0.12 -0.13,-0.25 -0.17,-0.39c0.14,0.39 0.07,0.2 0.03,0.11c-0.21,-0.49 -0.22,-1 0.18,-1.4c0.11,-0.12 0.24,-0.2 0.37,-0.27c-0.28,-0.79 -0.63,-1.53 -0.62,-2.44c0.01,-1.57 1.7,-2.49 3.05,-1.76c2.02,1.1 2.23,3.7 1.94,5.89c0.62,-0.19 1.3,-0.08 1.81,0.43c0.68,0.68 0.71,1.95 0.01,2.62c0.06,0.87 -0.19,1.84 -0.34,2.63c-0.42,2.23 -0.35,4.54 -1.03,6.71c0.33,0.13 0.61,0.38 0.82,0.66c0.09,0.12 0.15,0.25 0.19,0.39c0.33,-0.34 0.57,-0.76 0.8,-1.19c1.47,-2.66 5.69,-0.19 4.06,2.37c-0.73,1.16 -1.73,1.75 -2.88,2.1c0.01,0.01 0.01,0.02 0.02,0.03c0.51,0.89 0.1,2.35 -1.03,2.54c-0.54,0.09 -1.02,0.1 -1.53,-0.08c-0.07,0.1 -0.12,0.2 -0.18,0.31c0,0.01 -0.17,0.4 -0.08,0.17c-0.21,0.54 -0.4,0.88 -0.89,1.2c-0.01,0.01 -0.02,0.01 -0.03,0.02c-0.01,3.06 -0.46,6.04 -1.01,9.05c-0.18,0.98 -0.36,1.9 -0.66,2.71c0.14,-0.11 0.29,-0.21 0.43,-0.31c0.89,-0.55 1.73,-1.13 2.43,-1.85c-0.07,-0.04 -0.13,-0.08 -0.19,-0.13c-0.02,-0.02 -0.04,-0.03 -0.06,-0.05c-0.29,-0.23 -0.47,-0.56 -0.55,-0.92c-0.34,-0.74 -0.51,-1.62 -0.34,-2.4c0.19,-0.86 1.2,-1.38 2.02,-1.15c0.44,0.13 0.83,0.37 1.19,0.66c0.46,-1.34 0.95,-2.7 1.77,-3.7c1.63,-1.97 4.85,0.14 4.17,2.43c-0.4,1.32 -1.26,2.55 -2.23,3.67c0.18,0.22 0.32,0.46 0.4,0.74c0.2,0.71 -0.01,1.5 -0.54,2.02c-0.61,0.62 -1.76,0.86 -2.51,0.33c-0.06,-0.04 -0.11,-0.08 -0.17,-0.12c-0.54,0.53 -1.2,1.12 -1.91,1.66c0.2,0.23 0.36,0.51 0.45,0.85c0.35,1.24 -0.66,2.89 -2.08,2.73c-0.47,-0.05 -0.95,-0.07 -1.43,-0.08c0.01,0.56 -0.32,1.02 -0.6,1.5c-0.34,0.59 -0.71,1.22 -1.31,1.54c-0.11,0.77 -0.22,1.54 -0.34,2.3c0.09,0.05 0.15,0.11 0.2,0.18c0.8,0.42 1.52,1.17 1.39,2.17c-0.12,0.98 -0.39,1.74 -1.04,2.51c-0.43,0.51 -0.98,0.71 -1.54,0.7c-0.03,0.16 -0.06,0.31 -0.09,0.47c-0.06,0.31 -0.14,0.61 -0.2,0.91c0.18,0.07 0.35,0.18 0.52,0.35c1.09,1.11 0.55,2.56 0.01,3.8c-0.43,0.99 -0.87,2.14 -1.91,2.62c-0.35,2.34 -0.72,3.64 -1.89,5.63c-0.07,0.63 -0.14,1.25 -0.24,1.87c0.34,-0.52 0.84,-0.72 1.52,-0.62c0.56,0.08 0.95,0.72 0.95,1.24c0,0.57 -0.39,1.11 -0.95,1.25c-0.13,0.03 -0.31,0.07 -0.43,0.07c-0.09,-0.02 -0.17,-0.03 -0.26,-0.04c-0.17,0.03 -0.38,0.06 -0.14,0.03c-0.17,0.02 -0.34,0.06 -0.5,0.11c-0.12,0.03 -0.2,0.11 -0.28,0.2c0.02,0.21 -0.02,0.42 -0.13,0.61c-0.08,0.23 -0.17,0.44 -0.34,0.62c-0.04,0.04 -0.08,0.05 -0.12,0.08c-0.27,1.25 -0.57,2.51 -0.89,3.77c-0.07,0.31 -0.14,0.62 -0.22,0.93c0.16,0.45 0.04,0.93 -0.29,1.25c-0.44,1.98 -0.84,3.99 -1.38,5.94c0.1,-0.19 0.21,-0.36 0.31,-0.54c0.17,-0.56 0.45,-0.99 0.84,-1.4c0.72,-1.13 1.5,-2.19 2.37,-3.18c0,-0.03 -0.02,-0.04 -0.01,-0.07c0.2,-0.78 0.5,-1.53 0.7,-2.31c-0.01,-0.01 -0.01,-0.01 -0.02,-0.02c-0.94,-0.43 -0.66,-1.92 0.28,-2.15c0.31,-0.07 0.63,-0.06 0.91,0.12c0.78,0.51 0.78,1.96 -0.28,2.15c-0.04,0.01 -0.07,0.03 -0.1,0.04c-0.13,0.38 -0.29,0.75 -0.45,1.12c0.93,-0.94 1.95,-1.84 3.1,-2.7c-0.01,-0.01 -0.02,-0.01 -0.03,-0.02c-0.2,-0.21 -0.32,-0.46 -0.34,-0.76c0,-0.02 0,-0.03 0,-0.04c-0.03,-0.15 -0.07,-0.3 -0.05,-0.45c0.05,-0.44 0.27,-0.82 0.72,-0.95c0.42,-0.11 0.9,0.07 1.11,0.45c0.12,0.21 0.16,0.44 0.17,0.66c0.07,-0.04 0.13,-0.09 0.21,-0.14c0.5,-0.33 1,-0.65 1.49,-0.97c-0.02,-0.06 -0.02,-0.13 0.03,-0.21c0.36,-0.49 0.67,-1.02 0.69,-1.65c0,-0.25 -0.12,-0.33 -0.27,-0.54c-0.18,-0.23 -0.19,-0.62 -0.21,-0.9c-0.04,-0.42 0.32,-0.82 0.7,-0.92c0.55,-0.16 0.98,0.18 1.18,0.66c0.33,0.81 -0.15,1.27 -0.46,1.96c-0.13,0.29 -0.3,0.58 -0.49,0.85c1.2,-0.78 2.37,-1.57 3.52,-2.4c-0.09,-0.22 -0.06,-0.49 0.22,-0.66c2.47,-1.53 3.81,-3.85 5.57,-6.05c0.33,-0.41 0.67,-0.81 1.01,-1.21c-0.22,-1.72 -0.56,-3.46 -0.95,-5.18c-0.18,-0.13 -0.31,-0.22 -0.63,-0.32c-1.26,-0.4 -2.23,-1.1 -3.22,-1.96c-1.19,-1.05 -1.06,-3.05 0,-4.12c0.49,-0.48 1.21,-0.78 1.95,-0.83c-0.03,-0.1 -0.07,-0.2 -0.1,-0.29c-0.14,-0.04 -0.28,-0.07 -0.43,-0.13c0.04,0.02 0.07,0.03 0.11,0.05c-0.1,-0.04 -0.2,-0.07 -0.31,-0.11c-1.76,-0.55 -2.68,-2.58 -1.71,-4.22c0.23,-0.4 0.56,-0.73 0.95,-0.98c-0.19,-0.85 -0.17,-1.74 0,-2.68c0.24,-1.32 1.53,-1.89 2.69,-2.04c0.11,-0.02 0.22,-0.03 0.34,-0.04c1.42,-0.18 2.64,1.2 2.81,2.52c0.54,-0.07 1.1,0.02 1.62,0.33c1.61,0.94 1.64,2.91 0.55,4.23c-0.48,0.58 -1.06,1.08 -1.57,1.64c0.04,0.45 0.08,0.9 0.14,1.35c0.51,-0.2 1.09,-0.23 1.73,-0.13c0.01,0 0.03,0 0.04,0c1.06,0.16 2.08,1.51 1.96,2.57c-0.14,1.25 -0.69,2.03 -1.76,2.64c-0.33,0.18 -0.62,0.37 -1,0.46c-0.09,0.02 -0.18,0.03 -0.27,0.04c-0.02,0.02 -0.03,0.04 -0.05,0.06c0.03,0.6 0.03,1.17 0.01,1.74c0.56,0.02 1.11,0.28 1.38,0.73c0.29,-0.31 0.58,-0.62 0.87,-0.93c1.19,-1.26 2.47,-2.41 3.77,-3.54c0.02,-0.21 0.05,-0.41 0.08,-0.62c-0.07,0.52 -0.05,0.37 0.06,-0.46c-0.1,0.71 -0.01,-0.06 -0.01,-0.18c0.02,-0.22 0.03,-0.45 0.04,-0.68c0.01,-0.13 -0.02,-0.47 -0.01,-0.45c-0.04,-0.24 -0.07,-0.48 -0.06,-0.72c0.08,-2.33 2.67,-3.65 4.48,-2.69c0.56,-0.47 1.19,-0.86 1.79,-1.29c0.72,-0.52 1.15,-1.47 1.43,-2.29c0.1,-0.3 0.31,-0.85 0.59,-1.39c-0.22,-0.24 -0.44,-0.45 -0.61,-0.75c-0.94,-1.75 0.2,-4.64 2.51,-4.37l0,0c0.05,-0.93 0.38,-1.96 0.95,-2.74c-0.04,-0.05 -0.08,-0.1 -0.12,-0.14c-0.29,-0.5 -0.35,-0.92 -0.38,-1.49c-0.01,-0.14 0,-0.28 0.02,-0.42c-0.01,0.05 -0.02,0.1 -0.02,0.15c0,-0.07 0.01,-0.13 0.02,-0.2c0,-0.04 0.01,-0.08 0.01,-0.12c0.06,-0.57 0.12,-1.13 0.42,-1.65c0.16,-0.28 0.36,-0.53 0.59,-0.74c-0.04,-0.07 -0.08,-0.14 -0.12,-0.2c-0.24,-0.36 -0.49,-0.72 -0.74,-1.07c-0.24,-0.34 -0.07,-0.11 -0.45,-0.57c-0.09,-0.1 -0.44,-0.4 -0.49,-0.48c-0.1,-0.05 -0.2,-0.11 -0.29,-0.18c-2.08,-1.58 -2,-4.75 0.74,-5.62c1.35,-0.43 2.44,0.04 3.34,0.88c0.23,-0.15 0.48,-0.27 0.74,-0.31c0.12,-0.03 0.22,-0.04 0.33,-0.05c0.01,-0.03 0.01,-0.06 0.02,-0.09c0.01,-0.03 0.02,-0.07 0.03,-0.1c0.12,-0.36 0.35,-0.66 0.64,-0.86c-0.65,-0.44 -1.1,-1.17 -1.09,-2c0.01,-0.51 0.13,-0.94 0.35,-1.35c-0.62,-0.58 -1.07,-1.5 -0.99,-2.29c0.01,-0.07 0.02,-0.15 0.03,-0.22c0.18,-1.71 1.28,-3.15 3.14,-3.15c0.04,0 0.08,0.01 0.12,0.01c-0.26,-1.47 0.14,-3.29 0.31,-4.46c0.31,-2.12 1.18,-4.74 3.28,-5.65c0.69,-1.22 1.94,-1.97 3.44,-1.56c1.31,0.36 2.19,1.63 2.21,2.92c0.06,0.09 0.11,0.17 0.15,0.27c0.77,1.63 0.24,3.19 -0.42,4.76c-0.34,0.81 -0.74,1.68 -1.23,2.47c0.74,0.26 1.4,0.77 1.78,1.42c0.95,1.66 0.23,3.36 -1.16,4.41zm-46.75,-6.47c0.66,-0.71 1.19,-1.53 1.6,-2.41c0.03,-0.06 -0.06,-0.14 -0.1,-0.08c-0.65,0.64 -1.16,1.42 -1.97,1.89c-0.49,0.29 0.1,1.02 0.47,0.6zm-8.38,32.28l0.27,0c0.49,-0.29 0.8,-1.07 1.05,-1.7c0.07,-0.16 0.13,-0.31 0.19,-0.44l0.04,-0.09c0.26,-0.59 0.53,-1.2 0.41,-1.81c-0.3,0.38 -0.47,0.89 -0.64,1.38c-0.08,0.21 -0.15,0.43 -0.24,0.64c-0.11,0.29 -0.29,0.56 -0.47,0.81c-0.16,0.25 -0.32,0.49 -0.42,0.73l-0.19,0.48zm-2.94,-9.5l0.15,0c1.07,-0.12 1.55,-1.94 1.75,-2.72c0.29,-1.02 0.44,-2.05 0.54,-3.02c-0.24,0.89 -0.5,1.73 -0.83,2.54c-0.32,0.82 -0.66,1.5 -1.04,2.09l-0.01,0.02c-0.17,0.23 -0.3,0.41 -0.37,0.58l-0.19,0.51zm5.77,20.53l0,0.01l0,0.03c0.02,0.08 0.03,0.16 0.03,0.23c0.01,0.04 0.01,0.07 0.01,0.11l0.01,0.05c0.08,0.28 0.25,0.48 0.41,0.48c0.16,0 0.32,-0.18 0.4,-0.45l0.01,-0.03c0.02,-0.13 0.03,-0.26 0.06,-0.39l0,-0.01l0,-0.02c0.43,-2.77 0.89,-6.06 1.07,-9.37c0.06,-1.03 0.09,-2.09 0.12,-3.11l0,-0.2l0.15,-0.05c0.03,-0.01 0.07,-0.02 0.1,-0.02c0.01,0 0.02,0 0.03,-0.01c0.35,-0.16 0.71,-0.32 1.07,-0.48c2.04,-0.92 4.15,-1.86 5.74,-3.46c1.28,-1.27 2.33,-2.75 3.33,-4.21c-0.01,0.02 -0.03,0.04 -0.05,0.06c-1.1,1.36 -2.24,2.76 -3.63,3.83c-1.95,1.52 -4.06,2.49 -6.29,3.53l-0.43,0.19l0.01,-0.34c0.05,-1.89 0.07,-3.8 0.1,-5.66c0.02,-1.54 0.04,-3.14 0.07,-4.71l0,-0.14l0.13,-0.05c0.08,-0.04 0.13,-0.12 0.14,-0.2c0.01,-0.08 -0.02,-0.15 -0.09,-0.21l-0.17,0l0.01,-0.22c0.07,-2.18 0.15,-3.83 0.26,-5.37l0.01,-0.2l0.2,0c0.05,0 0.09,0.01 0.11,0.02c0.1,0.01 0.21,0.02 0.32,0.02c1.07,0 2.42,-0.65 3.51,-1.17c0.27,-0.13 0.52,-0.25 0.75,-0.35c1.01,-0.46 2.11,-1.03 2.88,-1.88c-0.23,0.1 -0.46,0.2 -0.69,0.29c-1.09,0.47 -2.21,0.96 -3.36,1.34c-0.3,0.1 -0.63,0.19 -0.98,0.28c-0.82,0.21 -1.74,0.45 -2.33,0.91l-0.38,0.29l0.04,-0.48c0,-0.09 0.01,-0.19 0.01,-0.29c0.01,-0.1 0.01,-0.2 0.02,-0.3c0.2,-2.21 0.63,-4.41 1.04,-6.53c0.8,-4.15 1.56,-8.09 0.83,-12.27c-0.02,0.85 -0.02,1.69 -0.02,2.51c-0.01,3.01 -0.02,6.12 -0.9,9.2l0,0.03l-0.41,0.08c-0.25,-0.61 -0.69,-1.24 -1,-1.58c-0.39,-0.44 -0.79,-0.88 -1.2,-1.31c0.34,0.51 0.64,1.03 0.93,1.54l0.04,0.08c0.33,0.57 0.67,1.16 0.9,1.78c0.12,0.31 0.15,0.39 0.32,0.52l0.11,0.09l-0.03,0.13c-0.63,2.59 -0.98,5.24 -1.08,8.09c-0.04,0.9 -0.07,1.83 -0.1,2.72c-0.01,0.45 -0.02,0.9 -0.04,1.36l-0.01,0.33l-0.3,-0.15c-0.03,-0.02 -0.08,-0.04 -0.13,-0.09c-0.04,-0.02 -0.07,-0.05 -0.1,-0.08c-0.14,-0.1 -0.27,-0.2 -0.41,-0.25l-0.08,-0.03l-0.04,-0.07c-0.12,-0.24 -0.31,-0.48 -0.48,-0.69l-0.03,-0.05l-0.11,-0.13c-0.25,-0.31 -0.49,-0.59 -0.8,-0.81c0,0 0,0 -0.01,0c0.16,0.45 0.4,0.85 0.62,1.21c0.18,0.32 0.46,0.79 0.82,0.85l0.1,0l0.06,0.08c0.06,0.06 0.12,0.12 0.18,0.18c0.03,0.03 0.06,0.06 0.09,0.08c0.16,0.17 0.32,0.31 0.49,0.47l0.11,0.1l-0.04,1.67c-0.14,4.79 -0.28,9.74 -0.66,14.59c-0.14,1.88 -0.37,3.79 -0.68,5.82l-0.42,0.01c-0.64,-3 -1.89,-5.92 -2.98,-8.5l-0.13,-0.3l0.01,0l-0.21,-0.47c-0.14,-0.34 -0.29,-0.69 -0.42,-1.02c-0.1,-0.25 -0.2,-0.49 -0.31,-0.73c-0.87,-2.18 -1.52,-4.41 -2.06,-7.02l-0.05,-0.26l0,0l-0.11,-0.55c-0.59,-3.12 -0.88,-6.31 -1.08,-9.01c0,0 0,0 -0.01,-0.01c0.04,3.05 0.27,5.96 0.68,8.67l0.1,0.65l-0.45,-0.45c-0.01,-0.01 -0.02,-0.01 -0.03,-0.02l-0.13,-0.08c-0.41,-0.24 -0.8,-0.48 -1.18,-0.84c-0.38,-0.38 -0.76,-0.76 -1.1,-1.19c0.19,0.42 0.42,0.77 0.66,1.05c0.08,0.1 0.21,0.22 0.35,0.35c0.31,0.3 0.67,0.64 0.76,0.99c0.08,0.33 0.66,0.97 1.15,1.08l0.14,0.03l0.02,0.14c0.32,1.63 0.68,3.07 1.09,4.39c0.45,1.37 1,2.73 1.53,4.05l0.14,0.35l-0.38,-0.06c-0.28,-0.05 -0.56,-0.13 -0.83,-0.2c-0.42,-0.12 -0.81,-0.24 -1.22,-0.24c-0.09,0 -0.18,0.01 -0.26,0.02c0.17,0.08 0.35,0.16 0.52,0.24c0.73,0.36 1.5,0.72 2.31,0.85l0.12,0.02l0.05,0.12c1.31,3.21 2.67,6.53 3.04,10.18zm-9.1,11.6c0.11,-0.26 0.21,-0.52 0.29,-0.8c-0.21,0.32 -0.4,0.61 -0.56,0.86c-0.15,0.25 -0.31,0.48 -0.46,0.71l-0.01,0.01l-0.01,0.01c-0.09,0.12 -0.2,0.21 -0.3,0.29c-0.06,0.05 -0.11,0.1 -0.16,0.14l-0.24,0.24l-0.11,-0.31c-0.19,-0.5 -0.37,-0.99 -0.55,-1.49c-1.4,-3.78 -2.84,-7.68 -3.92,-11.63l-0.06,-0.21l0.21,-0.06c1.53,-0.4 2.74,-1.86 3.62,-3.08c0.39,-0.55 0.74,-1.15 1.08,-1.72c0.23,-0.39 0.47,-0.79 0.72,-1.18c0.07,-0.11 0.14,-0.22 0.22,-0.33c0.32,-0.48 0.66,-0.97 0.79,-1.49c0.01,-0.06 0,-0.12 -0.04,-0.17c-0.03,-0.04 -0.09,-0.07 -0.16,-0.07c-0.05,0 -0.12,0.01 -0.17,0.1c-0.28,0.41 -0.48,0.86 -0.69,1.34c-0.22,0.48 -0.44,0.98 -0.75,1.45c-0.69,1 -1.46,2.06 -2.36,2.97c-0.83,0.79 -1.53,1.23 -2.42,1.53l-0.22,0.07l-0.05,-0.23c-0.91,-3.57 -1.52,-7.43 -1.88,-11.77l-0.01,-0.16l0.15,-0.06c0.96,-0.36 1.78,-1.05 2.58,-1.71c0.12,-0.1 0.25,-0.21 0.39,-0.31c0.78,-0.63 1.76,-1.41 2.15,-2.26c0.01,-0.03 0,-0.05 -0.01,-0.07c0,0 -0.01,-0.02 -0.03,-0.02c-0.01,0 -0.02,0.01 -0.04,0.01c-0.55,0.3 -1.06,0.79 -1.56,1.27c-0.37,0.36 -0.75,0.73 -1.17,1.02c-0.7,0.48 -1.46,0.88 -2.25,1.17l-0.27,0.1l-0.02,-0.28c-0.15,-2.14 -0.25,-4.43 -0.3,-6.8c-0.01,-1.19 -0.01,-2.41 0,-3.64l0.01,-0.21l0.16,0c0.88,-0.57 1.74,-2.02 2.19,-3.23c0.12,-0.3 0.27,-0.62 0.42,-0.95c0.4,-0.83 0.84,-1.76 0.71,-2.59c-0.37,0.51 -0.6,1.15 -0.83,1.77c-0.2,0.56 -0.42,1.13 -0.71,1.62c-0.21,0.34 -0.45,0.67 -0.7,1.02c-0.29,0.41 -0.58,0.83 -0.83,1.25l-0.42,0.7l0.04,-1.8c0.06,-3.84 0.13,-7.79 -0.3,-11.59c-0.44,5.61 -0.26,11.41 -0.1,16.57l0.02,0.48l-0.37,-0.3c-0.27,-0.23 -0.54,-0.46 -0.84,-0.67c-0.19,-0.11 -0.39,-0.21 -0.6,-0.32c-0.29,-0.14 -0.6,-0.28 -0.85,-0.47c-0.22,-0.17 -0.44,-0.36 -0.65,-0.54c-0.41,-0.36 -0.84,-0.73 -1.31,-0.94c0.23,0.51 0.66,0.9 1.11,1.31c0.32,0.31 0.66,0.62 0.92,0.98c0.51,0.72 1.3,1.04 2.13,1.39c0.08,0.03 0.16,0.07 0.23,0.1l0.02,0c0,0.01 0.01,0.01 0.02,0.01l0.2,0l0,0.21c0.02,0.36 0.03,0.74 0.03,1.1c0.07,2.06 0.17,3.95 0.3,5.75l0.01,0.17l-0.45,0.15c-0.13,0.04 -0.22,0.1 -0.26,0.2l-0.08,0.19l-0.19,-0.07c-0.34,-0.13 -0.7,-0.22 -1.01,-0.3c-0.14,-0.03 -0.27,-0.07 -0.38,-0.1l-0.31,-0.08c-0.68,-0.19 -1.38,-0.38 -2.04,-0.64c-0.18,-0.06 -0.35,-0.15 -0.51,-0.23c-0.3,-0.15 -0.59,-0.29 -0.91,-0.32c0.16,0.92 1.59,1.4 2.45,1.69l0.1,0.04c0.18,0.05 0.35,0.11 0.53,0.17c0.67,0.21 1.36,0.44 1.99,0.75c0.09,0.05 0.17,0.09 0.25,0.13c0.24,0.13 0.42,0.23 0.62,0.23c0.04,0 0.07,0 0.11,-0.01l0.23,-0.03l0.02,0.22c0.36,4.02 0.89,7.54 1.63,10.77c0.03,0.14 0.07,0.3 0.12,0.51l0.11,0.41l-0.39,-0.16c-0.49,-0.18 -1.04,-0.32 -1.56,-0.45c-0.54,-0.14 -1.09,-0.28 -1.61,-0.47c-0.54,-0.21 -1.09,-0.42 -1.63,-0.62c-0.54,-0.21 -1.1,-0.41 -1.65,-0.63c0.76,0.86 1.87,1.52 2.73,1.88c0.18,0.08 0.37,0.16 0.57,0.25c0.97,0.43 2.18,0.96 3.17,0.96c0.1,0 0.2,-0.01 0.29,-0.02c0.02,0 0.05,-0.01 0.09,-0.01l0.17,0l0.04,0.16c1.03,3.94 2.51,7.85 3.94,11.64l0.54,1.44l-0.43,-0.16c-0.62,-0.22 -1.17,-0.4 -1.71,-0.4c-0.02,0 -0.03,0 -0.04,0c0.25,0.49 0.81,0.74 1.36,0.98c0.13,0.06 0.26,0.11 0.38,0.17c0.06,0.03 0.12,0.05 0.17,0.05c0.02,0 0.03,0 0.04,-0.01c0.26,-0.22 0.54,-0.41 0.86,-0.58l-0.01,-0.13l0.22,0c0,0 0.01,0 0.02,0c0.01,0 0.02,-0.01 0.03,-0.01c0.06,-0.03 0.11,-0.06 0.17,-0.07l0.01,-0.02l0.02,0c0,-0.01 0.01,-0.02 0.01,-0.02c0.01,-0.01 0.02,-0.02 0.03,-0.03c0.1,-0.15 0.16,-0.32 0.22,-0.51c0.04,-0.13 0.09,-0.27 0.15,-0.41c0.14,-0.28 0.25,-0.53 0.35,-0.76zm15.28,12.43c0.01,0.06 0.05,0.12 0.08,0.17c0.06,0.08 0.14,0.14 0.24,0.19c0.33,0.74 1.1,1.28 1.52,1.97c0.45,0.81 0.94,1.58 1.42,2.37c0.02,0.03 0.08,0.03 0.06,-0.02c-0.11,-0.97 -0.26,-1.91 -0.76,-2.76c-0.27,-0.5 -0.64,-1.16 -1.11,-1.6c-0.12,-0.12 -0.25,-0.21 -0.37,-0.29c0.29,-0.05 0.59,-0.08 0.88,-0.11c1.3,-0.17 2.6,-0.28 3.94,-0.38c2.78,-0.23 5.69,-0.33 8.39,-1.07c0.99,-0.28 1.97,-0.6 2.94,-0.94c-0.02,0.06 0,0.14 0.06,0.18c0.62,0.53 1.55,0.64 2.3,0.93c0.98,0.4 1.84,0.9 2.58,1.65c0.2,0.21 0.48,-0.09 0.31,-0.29c-0.66,-0.79 -1.45,-1.42 -2.39,-1.82c-0.7,-0.3 -1.53,-0.74 -2.3,-0.85c1.35,-0.51 2.68,-1.08 4.01,-1.72c0.11,-0.03 0.22,-0.08 0.31,-0.15c3.14,-1.52 6.15,-3.29 9.07,-5.15c0.05,-0.01 0.02,-0.07 -0.03,-0.04c-2.69,1.15 -5.28,2.61 -7.93,3.98c0.19,-0.28 0.36,-0.55 0.51,-0.75c0.58,-0.84 1.06,-1.54 1.19,-2.54c0,-0.08 -0.1,-0.11 -0.17,-0.06c-0.64,0.68 -1.09,1.47 -1.67,2.23c-0.37,0.49 -0.75,0.97 -1.18,1.43c-0.2,0.22 -0.36,0.36 -0.45,0.59c-2.71,1.33 -5.47,2.47 -8.45,3.04c-1.44,0.27 -2.89,0.44 -4.35,0.56c0.48,-0.42 0.9,-0.99 1.21,-1.44c0.76,-1.05 1.37,-2.22 2.29,-3.16c0.15,-0.16 -0.08,-0.38 -0.25,-0.24c-0.93,0.76 -1.58,1.67 -2.24,2.65c-0.36,0.51 -0.73,1.03 -1.18,1.46c-0.34,0.3 -0.71,0.5 -1,0.82c-1.89,0.14 -3.77,0.22 -5.64,0.39l-1.56,0.15c-0.22,0.19 -0.33,0.4 -0.28,0.62zm-0.39,-0.55c0.01,0 0.01,0 0.01,0c0.01,-0.05 0.01,-0.09 0.01,-0.14c-0.01,0.07 -0.01,0.09 -0.02,0.14zm31.09,-37.73c0.09,0.3 0.19,0.62 0.28,0.97c-0.09,-0.4 -0.18,-0.73 -0.26,-0.96c0,-0.02 0,-0.02 -0.01,-0.02c-0.01,0 -0.01,0.01 -0.01,0.01zm1.75,11.92c-0.9,-0.28 -3.26,-1.08 -4.02,-0.26c-0.09,0.1 -0.06,0.21 0.03,0.29c0.37,0.28 0.77,0.16 1.22,0.2c0.74,0.06 1.5,0.15 2.23,0.36c1.31,0.37 3.01,0.94 3.71,2.16c0.06,0.11 0.21,0.01 0.17,-0.09c-0.7,-1.38 -1.89,-2.2 -3.34,-2.66zm10.55,-38.7c-0.01,-0.02 -0.02,-0.03 -0.04,-0.03c-0.01,0 -0.01,0 -0.02,0c-1.01,0.7 -1.86,1.63 -2.49,2.67l-0.19,-0.07c0.59,-2.79 1.19,-5.23 1.82,-7.41c-1.19,3.1 -2.2,6.54 -3.24,10.96l-0.08,0.34l-0.14,-0.37c-0.07,-0.18 -0.14,-0.36 -0.24,-0.46c-0.09,-0.1 -0.19,-0.18 -0.29,-0.27c-0.11,-0.09 -0.22,-0.18 -0.32,-0.29c0.03,0.13 0.03,0.27 0.02,0.41c0,0.17 -0.01,0.32 0.05,0.46c0.03,0.1 0.06,0.19 0.09,0.29c0.07,0.2 0.13,0.4 0.19,0.6c0.06,0.28 0.17,0.56 0.33,0.89l0.02,0.03l-0.01,0.04c-0.33,1.46 -0.65,2.95 -0.97,4.39c-0.48,2.26 -0.99,4.59 -1.53,6.86l-0.21,-0.05c0.02,-0.13 0.04,-0.27 0.04,-0.42c0,-0.97 -0.58,-2.17 -0.96,-2.96l-0.05,-0.1c-0.66,-1.41 -1.56,-2.61 -2.54,-3.38c-0.01,-0.02 -0.03,-0.02 -0.05,-0.02c-0.03,0 -0.06,0.02 -0.06,0.03c-0.01,0.01 -0.01,0.02 0.01,0.05c0.38,0.6 0.79,1.2 1.19,1.78c0.31,0.45 0.64,0.92 0.94,1.38c0.85,1.28 1.1,2.39 1.39,3.67l0,0.01l0.03,0l0,0.09c0,0.01 0.01,0.02 0.01,0.03c0,0.01 0.01,0.02 0.01,0.04l0.2,0.07c-0.26,1.06 -0.53,2.16 -0.82,3.23c-0.89,3.3 -2.09,6.55 -3.58,9.66l-0.2,-0.06c0.15,-0.98 0.09,-2.03 -0.05,-2.96c0.04,0.37 0.06,0.74 0.03,1.11c-0.02,0.36 -0.08,0.73 -0.13,1.08c-0.08,0.52 -0.17,1.05 -0.15,1.59c0,0.01 0,0.02 0.03,0.04l0.06,0.06l-0.04,0.07c-0.69,1.34 -1.25,2.36 -1.81,3.3c-1.78,2.97 -4.56,5.06 -7.01,6.78l-0.16,-0.14c0.45,-0.75 0.74,-1.7 0.98,-2.46l0.05,-0.15c0.4,-1.33 0.65,-2.53 0.77,-3.78c0,-0.04 -0.01,-0.07 -0.04,-0.1c-0.03,-0.04 -0.09,-0.06 -0.16,-0.06c-0.04,0 -0.14,0.01 -0.16,0.12c-0.07,0.3 -0.13,0.59 -0.19,0.89c-0.19,0.94 -0.38,1.91 -0.67,2.83c-0.16,0.54 -0.4,1.06 -0.64,1.57c-0.29,0.62 -0.59,1.26 -0.73,1.91l-0.01,0.04c0,0 -0.41,0.29 -0.6,0.43c-0.64,0.44 -1.3,0.91 -1.93,1.37c-1.77,1.3 -3.4,2.81 -4.98,4.26l-0.74,0.68l0.02,-0.27c0.11,-1.5 0.05,-3.01 -0.17,-4.5l0,-0.01c-0.02,-0.15 -0.05,-0.3 -0.02,-0.46c0.02,-0.18 0.1,-0.33 0.18,-0.49l0.02,-0.04c0.36,-0.69 0.61,-1.47 0.84,-2.22c0.38,-1.2 0.78,-2.43 1.63,-3.39l0.02,-0.02c0.09,-0.1 0.17,-0.19 0.19,-0.29c0.02,-0.06 0.01,-0.12 -0.02,-0.17c-0.02,-0.03 -0.04,-0.05 -0.06,-0.05c-0.01,0 -0.02,0 -0.03,0c-0.07,0 -0.15,0.06 -0.21,0.12c-1.43,1.31 -2.1,3.26 -2.69,4.98l-0.11,0.33l-1.36,-5.15c-0.04,-0.17 -0.09,-0.36 -0.06,-0.56c0.02,-0.15 0.09,-0.29 0.16,-0.43l0.03,-0.06c0.29,-0.56 0.42,-1.2 0.55,-1.83c0.02,-0.09 0.04,-0.19 0.06,-0.29c0.31,-1.48 0.78,-2.95 1.37,-4.34c-0.31,0.29 -0.51,0.74 -0.67,1.16c-0.56,1.45 -1.06,3.02 -1.57,4.93l-0.21,0c-0.54,-2.3 -0.86,-4.66 -0.95,-7.02c0,-0.07 -0.01,-0.15 -0.05,-0.18c-0.01,0 -0.02,-0.01 -0.02,-0.01c-0.05,0 -0.15,0.15 -0.15,0.31c-0.21,3.6 0.7,7.16 1.58,10.59l0.06,0.24l-0.21,-0.12c-0.9,-0.48 -1.84,-0.9 -2.8,-1.25c-0.07,-0.03 -0.14,-0.04 -0.2,-0.04c-0.09,0 -0.1,0.04 -0.11,0.05c-0.03,0.06 0.07,0.16 0.12,0.22c0.96,0.88 2.11,1.58 3.34,2.01l0.06,0.02l0.01,0.06c0.55,2.36 0.87,4.78 0.95,7.2c0.02,0.42 0.01,0.86 -0.22,1.21c-0.03,0.05 -0.07,0.1 -0.11,0.14c-0.08,0.11 -0.16,0.22 -0.17,0.34c-0.01,0.15 0.13,0.28 0.27,0.33c0.12,0.05 0.23,0.07 0.35,0.07c0.52,0 0.9,-0.51 1.27,-0.99c0.14,-0.2 0.28,-0.39 0.43,-0.54c0.36,-0.37 0.77,-0.71 1.16,-1.03c0.14,-0.12 0.28,-0.24 0.41,-0.35c0.32,-0.27 0.65,-0.55 1,-0.83c0.1,-0.09 0.22,-0.17 0.34,-0.25c0.24,-0.16 0.48,-0.32 0.61,-0.5l0.17,0.13c-0.02,0.02 -0.05,0.08 -0.04,0.13c0.07,0.42 0.48,0.85 0.8,1.21c0.1,0.1 0.18,0.19 0.26,0.28c0.4,0.46 0.9,1.03 1.47,1.34c0.02,0.01 0.05,0.02 0.08,0.02c0.06,0 0.12,-0.04 0.15,-0.09c0.02,-0.03 0.05,-0.1 0.01,-0.17c-0.24,-0.46 -0.63,-0.84 -1.01,-1.22c-0.1,-0.1 -0.19,-0.19 -0.29,-0.29c-0.12,-0.12 -0.24,-0.27 -0.37,-0.42c-0.28,-0.33 -0.58,-0.68 -0.94,-0.83c-0.02,-0.01 -0.04,-0.01 -0.05,-0.01c-0.01,0 -0.03,0 -0.04,0.01l-0.1,-0.19c0.64,-0.5 1.3,-1 1.93,-1.48c1.1,-0.84 2.23,-1.7 3.34,-2.6c5.04,-4.12 8.63,-9.5 11.31,-16.93l0.02,-0.07l0.07,0c0.53,-0.06 1.04,-0.28 1.57,-0.51c0.41,-0.18 0.84,-0.36 1.27,-0.46c0.86,-0.22 1.72,-0.34 2.66,-0.36c-0.55,-0.07 -1.14,-0.13 -1.72,-0.13c-0.38,0 -0.73,0.03 -1.05,0.08c-0.09,0.01 -0.18,0.03 -0.28,0.04c-0.67,0.11 -1.44,0.23 -2.05,0.54l-0.24,0.11l0.09,-0.25c1.06,-3.09 1.99,-6.54 2.93,-10.88l0.21,0.01c0,0.03 0.03,0.05 0.04,0.06c0.44,-0.19 0.82,-0.49 1.2,-0.78c0.25,-0.19 0.51,-0.39 0.78,-0.56c0.28,-0.17 0.58,-0.33 0.87,-0.48c0.35,-0.19 0.71,-0.38 1.06,-0.6c-0.76,0.15 -1.51,0.46 -2.3,0.95l-0.09,0.06c-0.59,0.35 -1.21,0.72 -1.54,1.3l-0.2,-0.08c0.4,-1.84 0.78,-3.73 1.15,-5.55c0.31,-1.51 0.63,-3.07 0.95,-4.59l0,-0.02l0.02,-0.02c0.66,-0.95 1.41,-1.85 2.13,-2.72c0.29,-0.36 0.59,-0.72 0.88,-1.08c0.02,-0.03 0.01,-0.07 0,-0.1zm-61.26,56.05c-1.05,0.45 0.77,-0.29 0,0l0,0zm0.88,-0.24c0,0 0,0 0,0c0.08,0.02 0.06,0.01 0,0zm17.14,11.5c0,-0.03 -0.01,-0.07 -0.02,-0.1c0.06,0.41 0.05,0.32 0.02,0.1z" id="svg_1"/>
 </g>
</svg>