<svg xmlns="http://www.w3.org/2000/svg" width="1440" height="141" fill="none" viewBox="0 0 1440 141">
  <g fill="#0A2239" clip-path="url(#a)">
    <path d="M1389.65 54.7975c19.97 2.9162 39.93 12.7862 65.8 32.4515 11.37 8.6737 19.97 14.057 37.01 23.105 33.5 17.871 43.6 29.012 47.93 52.79.83 4.785 1.05 27.815.23 30.956-.23.897 1.12 6.281 2.99 12.038 3.96 12.412 10.62 35.293 13.91 47.855 3.44 13.085 5.83 20.189 9.12 26.769 6.88 13.833 17.2 27.666 38.21 51.219 34.47 38.658 40.52 46.434 48.08 61.763 6.35 13.01 10.91 28.189 20.04 65.875 4.48 18.768 7.85 30.283 12.33 42.545 3.59 9.871 4.04 10.618 16.6 28.639 7.11 10.169 17.13 23.703 22.21 30.133 11.96 15.104 20.34 27.517 25.27 37.76 5.61 11.665 5.54 10.992.9 13.833-6.21 3.814-14.58 11.142-22.51 19.741-4.11 4.336-8.97 8.823-10.84 9.944-1.94 1.047-5.68 3.29-8.37 4.935-13.16 8.151-12.79 8.001-16.98 8.001-2.69 0-7.62-1.196-15.55-3.739-12.41-3.963-15.03-4.336-22.73-2.691-13.68 2.991-27.74 14.356-39.63 32.152-13.31 20.114-17.8 22.282-59.52 29.161-17.94 2.917-21.83 3.814-35.14 8.151-31.26 10.244-36.42 11.814-51.15 15.478-22.65 5.682-33.05 6.804-47.25 5.234-9.5-1.047-16.08-2.617-44.79-10.767-27.74-7.852-36.04-8.599-56.53-5.01-12.11 2.093-17.87 3.738-42.55 12.038-26.91 9.048-45.98 14.955-55.85 17.198l-7.25 1.645-4.94-4.412c-15.48-13.982-38.13-21.31-69.16-22.432-18.25-.598-39.41.748-98.78 6.506-22.13 2.093-44.415 3.738-52.416 3.738-3.215 0-3.514-.149-3.963-2.243-1.122-5.159-12.038-18.618-19.74-24.226-4.337-3.215-11.665-6.954-16.301-8.3-1.944-.598-9.421-2.243-16.599-3.739-16.076-3.29-21.909-5.832-27.517-11.739-4.636-4.935-6.729-8.225-16.225-25.273-13.684-24.675-24.227-33.947-57.576-50.397-20.114-9.945-24.002-12.936-29.834-22.731L797 582.695l3.14-6.206c8.45-16.749 23.479-39.48 46.21-69.763 21.609-28.713 32.601-40.976 47.107-52.341 3.888-3.066 4.561-3.963 4.187-5.384-.224-.972-.598-3.215-.822-4.935l-.449-3.29 4.711-.449c6.73-.598 13.534-2.916 20.712-7.028 9.197-5.235 17.871-12.413 22.208-18.619l3.738-5.309 15.179-7.627c13.385-6.654 15.553-7.552 19.067-7.552 12.413 0 64.082-11.141 67.142-14.431 2.47-2.692 8.75-15.777 11.52-23.927 3.07-9.197 4.93-18.021 7.48-34.919 1.04-6.805 2.69-16.675 3.66-22.058 1.05-5.309 2.54-16.45 3.44-24.675.82-8.225 2.77-24.302 4.26-35.817l2.69-20.861-1.42-6.057c-2.09-8.973-1.94-21.086.38-26.843 2.54-6.506 7.4-13.31 11.51-16.002 2.02-1.346 7.7-3.664 13.31-5.458 14.21-4.487 23.71-9.646 38.14-20.638 6.73-5.084 16.6-12.636 21.98-16.674 8.67-6.58 21.38-14.506 36.64-22.881 8.97-4.9346 17.12-10.6922 24.3-17.1974l2.62-2.3928 25.05-3.4395c13.75-1.8693 28.71-3.5891 33.12-3.8134 13.61-.7478 23.25-3.0657 45.01-11.1412 26.92-9.9448 40.9-12.4871 56.83-10.1692Z"/>
    <path d="M1204.65 103.798c19.97 2.916 39.93 12.786 65.8 32.451 11.37 8.674 19.97 14.057 37.01 23.105 33.5 17.871 43.6 29.012 47.93 52.79.83 4.785 1.05 27.815.23 30.956-.23.897 1.12 6.281 2.99 12.038 3.96 12.412 10.62 35.293 13.91 47.855 3.44 13.085 5.83 20.189 9.12 26.769 6.88 13.833 17.2 27.666 38.21 51.219 34.47 38.658 40.52 46.434 48.08 61.763 6.35 13.01 10.91 28.189 20.04 65.875 4.48 18.768 7.85 30.283 12.33 42.545 3.59 9.871 4.04 10.618 16.6 28.639 7.11 10.169 17.13 23.703 22.21 30.133 11.96 15.104 20.34 27.517 25.27 37.76 5.61 11.665 5.54 10.992.9 13.833-6.21 3.814-14.58 11.142-22.51 19.741-4.11 4.336-8.97 8.823-10.84 9.944-1.94 1.047-5.68 3.29-8.37 4.935-13.16 8.151-12.79 8.001-16.98 8.001-2.69 0-7.62-1.196-15.55-3.739-12.41-3.963-15.03-4.336-22.73-2.691-13.68 2.991-27.74 14.356-39.63 32.152-13.31 20.114-17.8 22.282-59.52 29.161-17.94 2.917-21.83 3.814-35.14 8.151-31.26 10.244-36.42 11.814-51.15 15.478-22.65 5.682-33.05 6.804-47.25 5.234-9.5-1.047-16.08-2.617-44.79-10.767-27.74-7.852-36.04-8.599-56.53-5.01-12.11 2.093-17.87 3.738-42.55 12.038-26.91 9.048-45.98 14.955-55.85 17.198l-7.25 1.645-4.94-4.412c-15.48-13.982-38.134-21.31-69.165-22.432-18.245-.598-39.405.748-98.775 6.506-22.133 2.093-44.415 3.738-52.416 3.738-3.215 0-3.514-.149-3.963-2.243-1.122-5.159-12.038-18.618-19.74-24.226-4.337-3.215-11.665-6.954-16.301-8.3-1.944-.598-9.421-2.243-16.599-3.739-16.076-3.29-21.909-5.832-27.517-11.739-4.636-4.935-6.729-8.225-16.225-25.273-13.684-24.675-24.227-33.947-57.576-50.397-20.114-9.945-24.002-12.936-29.834-22.731L612 631.695l3.14-6.206c8.45-16.749 23.479-39.48 46.21-69.763 21.609-28.713 32.601-40.976 47.107-52.341 3.888-3.066 4.561-3.963 4.187-5.384-.224-.972-.598-3.215-.822-4.935l-.449-3.29 4.711-.449c6.73-.598 13.534-2.916 20.712-7.028 9.197-5.235 17.871-12.413 22.208-18.619l3.738-5.309 15.179-7.627c13.385-6.654 15.553-7.552 19.067-7.552 12.413 0 64.081-11.141 67.147-14.431 2.467-2.692 8.748-15.777 11.515-23.927 3.065-9.197 4.935-18.021 7.477-34.919 1.047-6.805 2.692-16.675 3.664-22.058 1.047-5.309 2.542-16.45 3.439-24.675.823-8.225 2.767-24.302 4.262-35.817l2.692-20.861-1.42-6.057c-2.094-8.973-1.945-21.086.373-26.843 2.543-6.506 7.403-13.31 11.515-16.002 2.019-1.346 7.702-3.664 13.31-5.458 14.207-4.487 23.703-9.646 38.134-20.638 6.73-5.084 16.6-12.636 21.984-16.674 8.673-6.58 21.38-14.506 36.64-22.881 8.97-4.935 17.12-10.692 24.3-17.197l2.62-2.393 25.05-3.44c13.75-1.869 28.71-3.589 33.12-3.813 13.61-.748 23.25-3.066 45.01-11.141 26.92-9.945 40.9-12.487 56.83-10.169Z"/>
    <path d="M119.029 25.7975C99.0649 28.7137 79.1005 38.5837 53.2291 58.249c-11.3655 8.6737-19.9644 14.0574-37.0127 23.1049-33.4983 17.8707-43.5927 29.0121-47.9295 52.7901-.8225 4.785-1.0468 27.815-.2243 30.956.2243.897-1.1216 6.281-2.9909 12.038-3.963 12.412-10.6178 35.293-13.9078 47.855-3.4396 13.085-5.8323 20.189-9.1223 26.769-6.8791 13.833-17.1978 27.666-38.2091 51.219-34.4705 38.658-40.5265 46.434-48.0795 61.763-6.355 13.01-10.916 28.189-20.039 65.875-4.486 18.768-7.851 30.283-12.337 42.545-3.589 9.871-4.038 10.618-16.6 28.639-7.103 10.169-17.123 23.703-22.207 30.133-11.964 15.104-20.339 27.517-25.274 37.76-5.608 11.665-5.533 10.992-.897 13.833 6.206 3.814 14.581 11.142 22.507 19.741 4.112 4.336 8.972 8.823 10.842 9.944 1.944 1.047 5.683 3.29 8.374 4.935 13.16 8.151 12.787 8.001 16.974 8.001 2.692 0 7.627-1.196 15.553-3.739 12.412-3.963 15.029-4.336 22.731-2.691 13.683 2.991 27.74 14.356 39.629 32.152 13.3099 20.114 17.7963 22.282 59.5197 29.161 17.9455 2.917 21.8337 3.814 35.1433 8.151 31.2551 10.244 36.4144 11.814 51.1447 15.478 22.6563 5.682 33.0497 6.804 47.2566 5.234 9.4962-1.047 16.0757-2.617 44.7887-10.767 27.741-7.852 36.041-8.599 56.529-5.01 12.113 2.093 17.87 3.738 42.546 12.038 26.918 9.048 45.985 14.955 55.855 17.198l7.253 1.645 4.935-4.412c15.478-13.982 38.134-21.31 69.165-22.432 18.245-.598 39.405.748 98.775 6.506 22.133 2.093 44.415 3.738 52.416 3.738 3.215 0 3.514-.149 3.963-2.243 1.122-5.159 12.039-18.618 19.74-24.226 4.337-3.215 11.665-6.954 16.301-8.3 1.944-.598 9.421-2.243 16.599-3.739 16.076-3.29 21.909-5.832 27.517-11.739 4.636-4.935 6.729-8.225 16.226-25.273 13.683-24.675 24.226-33.947 57.575-50.397 20.114-9.945 24.002-12.936 29.834-22.731l3.589-6.057-3.14-6.206c-8.45-16.749-23.479-39.48-46.21-69.763-21.609-28.713-32.601-40.976-47.107-52.341-3.888-3.066-4.561-3.963-4.187-5.384.224-.972.598-3.215.822-4.935l.449-3.29-4.711-.449c-6.729-.598-13.534-2.916-20.712-7.028-9.197-5.235-17.871-12.413-22.207-18.619l-3.739-5.309-15.179-7.627c-13.384-6.654-15.553-7.552-19.067-7.552-12.412 0-64.081-11.141-67.146-14.431-2.468-2.692-8.749-15.777-11.515-23.927-3.066-9.197-4.935-18.021-7.478-34.919-1.047-6.805-2.692-16.675-3.664-22.058-1.046-5.309-2.542-16.45-3.439-24.675-.823-8.225-2.767-24.302-4.262-35.817l-2.692-20.861 1.421-6.057c2.093-8.973 1.944-21.086-.374-26.843-2.542-6.506-7.403-13.31-11.515-16.002-2.019-1.346-7.702-3.664-13.31-5.458-14.207-4.487-23.703-9.646-38.134-20.638-6.73-5.084-16.6-12.636-21.983-16.6741-8.674-6.58-21.385-14.506-36.639-22.8805-8.973-4.935-17.123-10.6926-24.301-17.1978l-2.617-2.3928-25.049-3.4395c-13.759-1.8693-28.713-3.5891-33.125-3.8134-13.609-.7478-23.254-3.0657-45.013-11.1412-26.918-9.9448-40.901-12.4871-56.828-10.1692Z"/>
    <path d="M342.029 54.7975c-19.964 2.9162-39.928 12.7862-65.8 32.4515-11.365 8.6737-19.964 14.057-37.013 23.105-33.498 17.871-43.592 29.012-47.929 52.79-.823 4.785-1.047 27.815-.224 30.956.224.897-1.122 6.281-2.991 12.038-3.963 12.412-10.618 35.293-13.908 47.855-3.44 13.085-5.832 20.189-9.122 26.769-6.88 13.833-17.198 27.666-38.209 51.219-34.4708 38.658-40.5274 46.434-48.0795 61.763-6.3557 13.01-10.9169 28.189-20.0392 65.875-4.4864 18.768-7.8511 30.283-12.3375 42.545-3.5891 9.871-4.0378 10.618-16.5996 28.639-7.1035 10.169-17.1231 23.703-22.20762 30.133-11.96368 15.104-20.33828 27.517-25.27328 37.76-5.608 11.665-5.5332 10.992-.8973 13.833 6.2062 3.814 14.58076 11.142 22.50671 19.741 4.11251 4.336 8.97279 8.823 10.84209 9.944 1.9441 1.047 5.6827 3.29 8.3746 4.935 13.16 8.151 12.7862 8.001 16.9734 8.001 2.6919 0 7.6269-1.196 15.5528-3.739 12.4124-3.963 15.0294-4.336 22.731-2.691 13.6835 2.991 27.7404 14.356 39.6294 32.152 13.31 20.114 17.796 22.282 59.52 29.161 17.945 2.917 21.833 3.814 35.143 8.151 31.255 10.244 36.414 11.814 51.145 15.478 22.656 5.682 33.049 6.804 47.256 5.234 9.496-1.047 16.076-2.617 44.789-10.767 27.741-7.852 36.041-8.599 56.529-5.01 12.113 2.093 17.87 3.738 42.546 12.038 26.918 9.048 45.985 14.955 55.855 17.198l7.253 1.645 4.935-4.412c15.478-13.982 38.134-21.31 69.165-22.432 18.245-.598 39.405.748 98.775 6.506 22.133 2.093 44.415 3.738 52.416 3.738 3.215 0 3.514-.149 3.963-2.243 1.122-5.159 12.039-18.618 19.74-24.226 4.337-3.215 11.665-6.954 16.301-8.3 1.944-.598 9.421-2.243 16.599-3.739 16.076-3.29 21.909-5.832 27.517-11.739 4.636-4.935 6.729-8.225 16.226-25.273 13.683-24.675 24.226-33.947 57.575-50.397 20.114-9.945 24.002-12.936 29.834-22.731l3.589-6.057-3.14-6.206c-8.45-16.749-23.479-39.48-46.21-69.763-21.609-28.713-32.601-40.976-47.107-52.341-3.888-3.066-4.561-3.963-4.187-5.384.224-.972.598-3.215.822-4.935l.449-3.29-4.711-.449c-6.729-.598-13.534-2.916-20.712-7.028-9.197-5.235-17.871-12.413-22.207-18.619l-3.739-5.309-15.179-7.627c-13.384-6.654-15.553-7.552-19.067-7.552-12.412 0-64.081-11.141-67.146-14.431-2.468-2.692-8.749-15.777-11.515-23.927-3.066-9.197-4.935-18.021-7.478-34.919-1.047-6.805-2.692-16.675-3.664-22.058-1.046-5.309-2.542-16.45-3.439-24.675-.823-8.225-2.767-24.302-4.262-35.817l-2.692-20.861 1.421-6.057c2.093-8.973 1.944-21.086-.374-26.843-2.542-6.506-7.403-13.31-11.515-16.002-2.019-1.346-7.702-3.664-13.31-5.458-14.207-4.487-23.703-9.646-38.134-20.638-6.73-5.084-16.6-12.636-21.983-16.674-8.674-6.58-21.385-14.506-36.639-22.881-8.973-4.9346-17.123-10.6922-24.301-17.1974l-2.617-2.3928-25.049-3.4395c-13.759-1.8693-28.713-3.5891-33.125-3.8134-13.609-.7478-23.254-3.0657-45.013-11.1412-26.918-9.9448-40.901-12.4871-56.828-10.1692Z"/>
    <path d="M486.029 84.7975c-19.964 2.9162-39.928 12.7862-65.8 32.4515-11.365 8.674-19.964 14.057-37.013 23.105-33.498 17.871-43.592 29.012-47.929 52.79-.823 4.785-1.047 27.815-.224 30.956.224.897-1.122 6.281-2.991 12.038-3.963 12.412-10.618 35.293-13.908 47.855-3.44 13.085-5.832 20.189-9.122 26.769-6.88 13.833-17.198 27.666-38.209 51.219-34.471 38.658-40.527 46.434-48.08 61.763-6.355 13.01-10.916 28.189-20.039 65.875-4.486 18.768-7.851 30.283-12.337 42.545-3.589 9.871-4.038 10.618-16.6 28.639-7.103 10.169-17.123 23.703-22.207 30.133-11.964 15.104-20.339 27.517-25.274 37.76-5.608 11.665-5.533 10.992-.897 13.833 6.206 3.814 14.581 11.142 22.507 19.741 4.112 4.336 8.972 8.823 10.842 9.944 1.944 1.047 5.683 3.29 8.374 4.935 13.16 8.151 12.787 8.001 16.974 8.001 2.692 0 7.627-1.196 15.553-3.739 12.412-3.963 15.029-4.336 22.731-2.691 13.683 2.991 27.74 14.356 39.629 32.152 13.31 20.114 17.796 22.282 59.52 29.161 17.945 2.917 21.833 3.814 35.143 8.151 31.255 10.244 36.414 11.814 51.145 15.478 22.656 5.682 33.049 6.804 47.256 5.234 9.496-1.047 16.076-2.617 44.789-10.767 27.741-7.852 36.041-8.599 56.529-5.01 12.113 2.093 17.87 3.738 42.546 12.038 26.918 9.048 45.985 14.955 55.855 17.198l7.253 1.645 4.935-4.412c15.478-13.982 38.134-21.31 69.165-22.432 18.245-.598 39.405.748 98.775 6.506 22.133 2.093 44.415 3.738 52.416 3.738 3.215 0 3.514-.149 3.963-2.243 1.122-5.159 12.039-18.618 19.74-24.226 4.337-3.215 11.665-6.954 16.301-8.3 1.944-.598 9.421-2.243 16.599-3.739 16.076-3.29 21.909-5.832 27.517-11.739 4.636-4.935 6.729-8.225 16.226-25.273 13.678-24.675 24.228-33.947 57.578-50.397 20.11-9.945 24-12.936 29.83-22.731l3.59-6.057-3.14-6.206c-8.45-16.749-23.48-39.48-46.21-69.763-21.61-28.713-32.601-40.976-47.107-52.341-3.888-3.066-4.561-3.963-4.187-5.384.224-.972.598-3.215.822-4.935l.449-3.29-4.711-.449c-6.729-.598-13.534-2.916-20.712-7.028-9.197-5.235-17.871-12.413-22.207-18.619l-3.739-5.309-15.179-7.627c-13.384-6.654-15.553-7.552-19.067-7.552-12.412 0-64.081-11.141-67.146-14.431-2.468-2.692-8.749-15.777-11.515-23.927-3.066-9.197-4.935-18.021-7.478-34.919-1.047-6.805-2.692-16.675-3.664-22.058-1.046-5.309-2.542-16.45-3.439-24.675-.823-8.225-2.767-24.302-4.262-35.817l-2.692-20.861 1.421-6.057c2.093-8.973 1.944-21.086-.374-26.843-2.542-6.506-7.403-13.31-11.515-16.002-2.019-1.346-7.702-3.664-13.31-5.458-14.207-4.487-23.703-9.646-38.134-20.638-6.73-5.084-16.6-12.636-21.983-16.674-8.674-6.58-21.385-14.506-36.639-22.881-8.973-4.935-17.123-10.692-24.301-17.197l-2.617-2.393-25.049-3.44c-13.759-1.869-28.713-3.589-33.125-3.813-13.609-.748-23.254-3.066-45.013-11.1413-26.918-9.9448-40.901-12.4871-56.828-10.1692Z"/>
    <path d="M701.029 103.798c-19.964 2.916-39.928 12.786-65.8 32.451-11.365 8.674-19.964 14.057-37.013 23.105-33.498 17.871-43.592 29.012-47.929 52.79-.823 4.785-1.047 27.815-.224 30.956.224.897-1.122 6.281-2.991 12.038-3.963 12.412-10.618 35.293-13.908 47.855-3.44 13.085-5.832 20.189-9.122 26.769-6.88 13.833-17.198 27.666-38.209 51.219-34.471 38.658-40.527 46.434-48.08 61.763-6.355 13.01-10.916 28.189-20.039 65.875-4.486 18.768-7.851 30.283-12.337 42.545-3.589 9.871-4.038 10.618-16.6 28.639-7.103 10.169-17.123 23.703-22.207 30.133-11.964 15.104-20.339 27.517-25.274 37.76-5.608 11.665-5.533 10.992-.897 13.833 6.206 3.814 14.581 11.142 22.507 19.741 4.112 4.336 8.972 8.823 10.842 9.944 1.944 1.047 5.683 3.29 8.374 4.935 13.16 8.151 12.787 8.001 16.974 8.001 2.692 0 7.627-1.196 15.553-3.739 12.412-3.963 15.029-4.336 22.731-2.691 13.683 2.991 27.74 14.356 39.629 32.152 13.31 20.114 17.796 22.282 59.52 29.161 17.945 2.917 21.833 3.814 35.143 8.151 31.255 10.244 36.414 11.814 51.145 15.478 22.656 5.682 33.049 6.804 47.256 5.234 9.496-1.047 16.076-2.617 44.789-10.767 27.741-7.852 36.041-8.599 56.529-5.01 12.113 2.093 17.87 3.738 42.546 12.038 26.918 9.048 45.985 14.955 55.855 17.198l7.253 1.645 4.935-4.412c15.478-13.982 38.134-21.31 69.165-22.432 18.245-.598 39.405.748 98.775 6.506 22.13 2.093 44.42 3.738 52.42 3.738 3.21 0 3.51-.149 3.96-2.243 1.12-5.159 12.04-18.618 19.74-24.226 4.34-3.215 11.66-6.954 16.3-8.3 1.94-.598 9.42-2.243 16.6-3.739 16.08-3.29 21.91-5.832 27.52-11.739 4.63-4.935 6.73-8.225 16.22-25.273 13.68-24.675 24.23-33.947 57.58-50.397 20.11-9.945 24-12.936 29.83-22.731l3.59-6.057-3.14-6.206c-8.45-16.749-23.48-39.48-46.21-69.763-21.61-28.713-32.6-40.976-47.11-52.341-3.89-3.066-4.56-3.963-4.18-5.384.22-.972.59-3.215.82-4.935l.45-3.29-4.71-.449c-6.73-.598-13.54-2.916-20.72-7.028-9.19-5.235-17.87-12.413-22.2-18.619l-3.74-5.309-15.18-7.627c-13.39-6.654-15.55-7.552-19.07-7.552-12.41 0-64.08-11.141-67.14-14.431-2.47-2.692-8.75-15.777-11.52-23.927-3.07-9.197-4.93-18.021-7.48-34.919-1.04-6.805-2.69-16.675-3.66-22.058-1.05-5.309-2.54-16.45-3.44-24.675-.82-8.225-2.77-24.302-4.26-35.817l-2.69-20.861 1.42-6.057c2.09-8.973 1.94-21.086-.38-26.843-2.54-6.506-7.4-13.31-11.512-16.002-2.019-1.346-7.702-3.664-13.31-5.458-14.207-4.487-23.703-9.646-38.134-20.638-6.73-5.084-16.6-12.636-21.983-16.674-8.674-6.58-21.385-14.506-36.639-22.881-8.973-4.935-17.123-10.692-24.301-17.197l-2.617-2.393-25.049-3.44c-13.759-1.869-28.713-3.589-33.125-3.813-13.609-.748-23.254-3.066-45.013-11.141-26.918-9.945-40.901-12.487-56.828-10.169Z"/>
    <path d="M894.029 74.7975c-19.964 2.9162-39.928 12.7862-65.8 32.4515-11.365 8.674-19.964 14.057-37.013 23.105-33.498 17.871-43.592 29.012-47.929 52.79-.823 4.785-1.047 27.815-.224 30.956.224.897-1.122 6.281-2.991 12.038-3.963 12.412-10.618 35.293-13.908 47.855-3.44 13.085-5.832 20.189-9.122 26.769-6.88 13.833-17.198 27.666-38.209 51.219-34.471 38.658-40.527 46.434-48.08 61.763-6.355 13.01-10.916 28.189-20.039 65.875-4.486 18.768-7.851 30.283-12.337 42.545-3.589 9.871-4.038 10.618-16.6 28.639-7.103 10.169-17.123 23.703-22.207 30.133-11.964 15.104-20.339 27.517-25.274 37.76-5.608 11.665-5.533 10.992-.897 13.833 6.206 3.814 14.581 11.142 22.507 19.741 4.112 4.336 8.972 8.823 10.842 9.944 1.944 1.047 5.683 3.29 8.374 4.935 13.16 8.151 12.787 8.001 16.974 8.001 2.692 0 7.627-1.196 15.553-3.739 12.412-3.963 15.029-4.336 22.731-2.691 13.683 2.991 27.74 14.356 39.629 32.152 13.31 20.114 17.796 22.282 59.52 29.161 17.945 2.917 21.833 3.814 35.143 8.151 31.255 10.244 36.414 11.814 51.145 15.478 22.656 5.682 33.049 6.804 47.256 5.234 9.496-1.047 16.076-2.617 44.789-10.767 27.741-7.852 36.041-8.599 56.529-5.01 12.113 2.093 17.87 3.738 42.549 12.038 26.91 9.048 45.98 14.955 55.85 17.198l7.26 1.645 4.93-4.412c15.48-13.982 38.13-21.31 69.17-22.432 18.24-.598 39.4.748 98.77 6.506 22.13 2.093 44.42 3.738 52.42 3.738 3.21 0 3.51-.149 3.96-2.243 1.12-5.159 12.04-18.618 19.74-24.226 4.34-3.215 11.66-6.954 16.3-8.3 1.94-.598 9.42-2.243 16.6-3.739 16.08-3.29 21.91-5.832 27.52-11.739 4.63-4.935 6.73-8.225 16.22-25.273 13.68-24.675 24.23-33.947 57.58-50.397 20.11-9.945 24-12.936 29.83-22.731l3.59-6.057-3.14-6.206c-8.45-16.749-23.48-39.48-46.21-69.763-21.61-28.713-32.6-40.976-47.11-52.341-3.89-3.066-4.56-3.963-4.18-5.384.22-.972.59-3.215.82-4.935l.45-3.29-4.71-.449c-6.73-.598-13.54-2.916-20.72-7.028-9.19-5.235-17.87-12.413-22.2-18.619l-3.74-5.309-15.18-7.627c-13.39-6.654-15.55-7.552-19.07-7.552-12.41 0-64.08-11.141-67.14-14.431-2.47-2.692-8.75-15.777-11.52-23.927-3.07-9.197-4.93-18.021-7.48-34.919-1.04-6.805-2.69-16.675-3.66-22.058-1.05-5.309-2.54-16.45-3.44-24.675-.82-8.225-2.77-24.302-4.26-35.817l-2.69-20.861 1.42-6.057c2.09-8.973 1.94-21.086-.38-26.843-2.54-6.506-7.4-13.31-11.51-16.002-2.02-1.346-7.7-3.664-13.31-5.458-14.21-4.487-23.7-9.646-38.14-20.638-6.73-5.084-16.6-12.636-21.98-16.674-8.67-6.58-21.38-14.506-36.64-22.881-8.97-4.935-17.12-10.692-24.3-17.197l-2.62-2.393-25.05-3.4397c-13.75-1.8693-28.71-3.5891-33.12-3.8134-13.609-.7478-23.254-3.0657-45.013-11.1412-26.918-9.9448-40.901-12.4871-56.828-10.1692Z"/>
  </g>
  <defs>
    <clipPath id="a">
      <path fill="#fff" d="M0 0h1440v142H0z"/>
    </clipPath>
  </defs>
</svg>
