<svg version="1.0" xmlns="http://www.w3.org/2000/svg"
 width="1280.000000pt" height="936.000000pt" viewBox="0 0 1280.000000 936.000000"
 preserveAspectRatio="xMidYMid meet">
<g transform="translate(0.000000,936.000000) scale(0.100000,-0.100000)"
fill="#000000" stroke="none">
<path d="M4875 9349 c-267 -39 -534 -171 -880 -434 -152 -116 -267 -188 -495
-309 -448 -239 -583 -388 -641 -706 -11 -64 -14 -372 -3 -414 3 -12 -15 -84
-40 -161 -53 -166 -142 -472 -186 -640 -46 -175 -78 -270 -122 -358 -92 -185
-230 -370 -511 -685 -461 -517 -542 -621 -643 -826 -85 -174 -146 -377 -268
-881 -60 -251 -105 -405 -165 -569 -48 -132 -54 -142 -222 -383 -95 -136 -229
-317 -297 -403 -160 -202 -272 -368 -338 -505 -75 -156 -74 -147 -12 -185 83
-51 195 -149 301 -264 55 -58 120 -118 145 -133 26 -14 76 -44 112 -66 176
-109 171 -107 227 -107 36 0 102 16 208 50 166 53 201 58 304 36 183 -40 371
-192 530 -430 178 -269 238 -298 796 -390 240 -39 292 -51 470 -109 418 -137
487 -158 684 -207 303 -76 442 -91 632 -70 127 14 215 35 599 144 371 105 482
115 756 67 162 -28 239 -50 569 -161 360 -121 615 -200 747 -230 l97 -22 66
59 c207 187 510 285 925 300 244 8 527 -10 1321 -87 296 -28 594 -50 701 -50
43 0 47 2 53 30 15 69 161 249 264 324 58 43 156 93 218 111 26 8 126 30 222
50 215 44 293 78 368 157 62 66 90 110 217 338 183 330 324 454 770 674 269
133 321 173 399 304 l48 81 -42 83 c-113 224 -314 528 -618 933 -289 384 -436
548 -630 700 -52 41 -61 53 -56 72 3 13 8 43 11 66 l6 44 -63 6 c-90 8 -181
39 -277 94 -123 70 -239 166 -297 249 l-50 71 -203 102 c-179 89 -208 101
-255 101 -166 0 -857 149 -898 193 -33 36 -117 211 -154 320 -41 123 -66 241
-100 467 -14 91 -36 223 -49 295 -14 71 -34 220 -46 330 -11 110 -37 325 -57
479 l-36 279 19 81 c28 120 26 282 -5 359 -34 87 -99 178 -154 214 -27 18
-103 49 -178 73 -190 60 -317 129 -510 276 -90 68 -222 169 -294 223 -116 88
-286 194 -490 306 -120 66 -229 143 -325 230 l-35 32 -335 46 c-184 25 -384
48 -443 51 -182 10 -311 41 -602 149 -360 133 -547 167 -760 136z"/>
</g>
</svg>
