<svg xmlns="http://www.w3.org/2000/svg" xml:space="preserve" width="800" height="800" viewBox="0 0 405.871 405.871">
  <path d="M256.683 160.779c-4.758-14.251-27.335-40.694-34.065-40.694-6.729 0-8.82 43.295-23.759 47.036-14.345 3.585-84.357 20.197-84.357 20.197s-11.525-9.384-15.046-8.717c-2.96.563-4.395 13.707-13.446 14.395-9.04.685-20.964.146-20.964.146C44.049 151.152 0 148.893 0 148.893c22.624 33.66 44.4 55.834 13.513 102.573 21.385 0 48.714-32.472 50.694-39.601 7.574-2.002 16.29-1.928 20.991 3.563 3.563 4.162 3.66 6.077 6.437 6.869 2.771.791 5.838-6.073 10.593-6.073 4.752 0 27.786 7.29 33.663 9.105 5.872 1.812 11.88 22.567 19.404 23.362 7.522.796 24.553-13.86 28.513-13.86 3.961 0 33.266 4.354 65.743 3.161 5.544 5.944 12.682 17.945-1.805 40.407-2.767 4.357-1.979 11.487 7.134 4.357 9.106-7.134 25.918-17.127 42.948-48.015 17.424-1.587 108.042-23.669 108.042-39.904.001-16.236-99.684-35.643-149.187-34.058z"/>
</svg>
